<?xml version="1.0" encoding="utf-8"?>
<!-- Generator: Adobe Illustrator 23.0.3, SVG Export Plug-In . SVG Version: 6.00 Build 0)  -->
<svg version="1.1" id="Layer_1" xmlns="http://www.w3.org/2000/svg" xmlns:xlink="http://www.w3.org/1999/xlink" x="0px" y="0px"
	 viewBox="0 0 49.2 84.6" style="enable-background:new 0 0 49.2 84.6;" xml:space="preserve">
<path d="M29.5,84.6c7.3-1.1,20.4-8.9,19.7-20.8c-0.3-5.1-3.7-9.4-6.2-13.2c-2-3-5.5-9.6,1.4-12.6c-10.8,2.2-13.6,8.2-12.8,13.8
	c-3-4.6-2-9,0.8-13.2c4.9-7,8.3-13.3,4.5-22.3C34.3,10,27.5,1.8,25.3,0c0.6,5.2-0.6,10.5-4.1,15.6c-4.3,6.2-10,11.5-14.3,17.7
	C3,38.9,0.5,44.4,0.1,51.4c-0.4,7,1.4,13.4,5.3,19.1c4.8,7.1,11.5,12.1,20.4,14.1H29.5z"/>
</svg>
