<?xml version="1.0" encoding="utf-8"?>
<!-- Generator: Adobe Illustrator 23.0.3, SVG Export Plug-In . SVG Version: 6.00 Build 0)  -->
<svg version="1.1" id="Layer_1" xmlns="http://www.w3.org/2000/svg" xmlns:xlink="http://www.w3.org/1999/xlink" x="0px" y="0px"
	 viewBox="0 0 38.6 74.4" style="enable-background:new 0 0 38.6 74.4;" xml:space="preserve">
<g>
	<path d="M38.5,51.5c0-11.7-11.9-19.4-16-29.4C19.7,15,20.6,6,25.6,0c-8.8,6.3-18.3,18.1-20,28.9c-1,6-0.7,12.4,2.6,17.7
		c3,5,8.1,7.8,12.2,11.6c4.1,3.8,7.1,8.1,6.5,14.7C31.9,66.9,38.7,59.8,38.5,51.5z"/>
	<path d="M0,52.7c2.6,0.8,3.5,3.5,4.4,5.7c0.8,1.8,0.8,3.9,1.4,5.9c1.5,5,4.6,8.5,9.5,9.7c2.6,0.8,7.8,0.4,10.6-1.1
		c0-5.4-1.9-9.7-5.6-13.3C14.7,54.2,7.6,52.7,0,52.7z"/>
</g>
</svg>
