<?xml version="1.0" encoding="utf-8"?>
<!-- Generator: Adobe Illustrator 23.0.3, SVG Export Plug-In . SVG Version: 6.00 Build 0)  -->
<svg version="1.1" id="Layer_1" xmlns="http://www.w3.org/2000/svg" xmlns:xlink="http://www.w3.org/1999/xlink" x="0px" y="0px"
	 viewBox="0 0 45.9 82.9" style="enable-background:new 0 0 45.9 82.9;" xml:space="preserve">
<path d="M18.3,40.7c-5.4-0.7-10-12.3-7.1-16.3C7.4,27,4.8,32.2,5.5,37.1c0.7,4.8,4.5,8.1,7.1,11.9c2.7,3.9,1.9,9.3-2.2,10.6
	c-3.6,1.1-6.1-1.5-6.8-4.7C2.9,51.7,3.8,48,5.9,46C1.1,50-0.5,56.1,0.1,62.8c1,11.4,13.2,20.4,22.2,20.1c13.5,1.3,29-18,21.6-35.5
	c-2.8-6.5-8.7-15.4-12.8-21C25.4,18.2,21.4,9,28,0c-9,5.4-14.8,17.8-15,25.5C12.9,31,14.2,35.9,18.3,40.7z"/>
</svg>
