<?xml version="1.0" encoding="utf-8"?>
<!-- Generator: Adobe Illustrator 23.0.3, SVG Export Plug-In . SVG Version: 6.00 Build 0)  -->
<svg version="1.1" id="Layer_1" xmlns="http://www.w3.org/2000/svg" xmlns:xlink="http://www.w3.org/1999/xlink" x="0px" y="0px"
	 viewBox="0 0 42.4 72.1" style="enable-background:new 0 0 42.4 72.1;" xml:space="preserve">
<path d="M25.2,19.2C20.7,15.4,14.7,8.4,19.5,0c-4.8,4.1-8.1,9.3-9.4,12.6c-2.6,6.8-0.1,13.2,5.1,18.6c3.6,3.8,5.8,6.8,4.9,11.7
	C18,38,10.8,29.3,0,30.4c10.8,4.3,7.8,12.4,6.6,18.5c-0.7,3.6-0.8,10.1,2,14.2c3.8,5.6,8.3,7.7,12.8,8.9c0,0,0,0,0,0
	c0.1,0,0.2,0,0.3,0c0,0,0.1,0,0.1-0.1c0,0,0,0,0,0c10.3-2.8,20.5-13.5,20.6-25.5C42.5,33.9,33.7,27.1,25.2,19.2z"/>
</svg>
