<?xml version="1.0" encoding="utf-8"?>
<!-- Generator: Adobe Illustrator 23.0.3, SVG Export Plug-In . SVG Version: 6.00 Build 0)  -->
<svg version="1.1" id="Layer_1" xmlns="http://www.w3.org/2000/svg" xmlns:xlink="http://www.w3.org/1999/xlink" x="0px" y="0px"
	 viewBox="0 0 38.3 76.2" style="enable-background:new 0 0 38.3 76.2;" xml:space="preserve">
<path d="M7.9,73.2c1.1,0.7,5.3,3,9.1,3.1c16.2,0.4,20.3-10.6,21-14.2c1-5.4-0.8-8.5-3.7-11.5c1.6,2.5,2.2,6.8,0.6,10.1
	c-1.4,2.7-5.2,5.7-8.1,3.2c-6-5.1,5.4-10.6,5.8-17.3c0.3-4.9-1.4-8.2-4.7-9.9c2.4,2.1,2.7,4.9,2.4,6.8c-0.5,2.8-3.2,5.7-5.5,7.1
	c-2.9,1.8-4.9,3.2-6.8,5.5c-1.7,2.2-2.8,3.9-3.3,6.6c-0.5,2.8,0.5,5.7,2.2,7.4c-4.2-2.4-6-8.1-4.7-12.3c1.6-4.9,5.1-9.6,7.9-13.6
	c3.6-4.9,4.9-9,3-15c-1.8-5.5-4.6-9.7-4.9-14.4C18,10.4,18,6.1,24,0C9.8,6.6,7.7,16.1,10.3,23.3c1,2.9,2.4,5.4,3.2,8.2
	c0.8,3,0.7,5.1-2.2,8.1c3.6-6.3,0.4-14.1-7-15.6c4.1,2.2,4.9,7,4.1,11.3c-0.9,4.7-4.3,8.9-6.2,13.1C-1.9,58-0.5,67.8,7.9,73.2z"/>
</svg>
