<?xml version="1.0" encoding="utf-8"?>
<!-- Generator: Adobe Illustrator 23.0.3, SVG Export Plug-In . SVG Version: 6.00 Build 0)  -->
<svg version="1.1" id="Layer_1" xmlns="http://www.w3.org/2000/svg" xmlns:xlink="http://www.w3.org/1999/xlink" x="0px" y="0px"
	 viewBox="0 0 33.6 78.5" style="enable-background:new 0 0 33.6 78.5;" xml:space="preserve">
<path d="M15.3,78.5c-4.4-0.4-10-2.9-12.6-6.1c-2.8-3.4-3.2-6-1.9-10.2c0.6-1.8,3.7-7.1-0.7-10.8c6.6,1.6,6.1,7.3,5.7,9.1
	c2.7-1,5.1-3.8,3.3-7.6c-1.8-3.9-8-6.3-8-10.7c0-3.3,3-9.9,2.4-12.6C4.2,32.3,6.7,38.5,9,38c1.7-0.4,2.7-1.4,3-3.3
	c0.6-3.7-3.7-7.2-5.4-10.3c-2-3.4-0.2-7.1,1.1-9.3c-0.1,2.9,3.7,7.4,5.1,5.4c3.2-4.5-0.5-7-2.1-11.1C9.5,6.4,10.6,2.1,12.4,0
	c0,4.9,5.5,4.6,6.4,9.6c1.1,6.5-4.1,9.3-0.4,13.2c2.4,2.6,5-3.6,4.3-6.7c2.5,3.3,4.4,6.7,3.8,9.6c-0.3,1.7-2,3.1-3.8,4.6
	C20,32.6,17.9,35.5,19,39c0.4,1.5,2.3,3.6,5.1,3.6c-1.1-1.9-2.4-7.2,0.5-8.7c-1.7,2.6,4.2,6.4,6.3,10.5c2.6,5.3,3.6,14.6-7.4,24.2
	c3.5,0.7,8.4-0.9,10.2-3.9c-2.4,7.6-11.2,13.4-17.5,13.8H15.3z"/>
</svg>
