<?xml version="1.0" encoding="utf-8"?>
<!-- Generator: Adobe Illustrator 23.0.3, SVG Export Plug-In . SVG Version: 6.00 Build 0)  -->
<svg version="1.1" id="Layer_1" xmlns="http://www.w3.org/2000/svg" xmlns:xlink="http://www.w3.org/1999/xlink" x="0px" y="0px"
	 viewBox="0 0 36.4 78.4" style="enable-background:new 0 0 36.4 78.4;" xml:space="preserve">
<g>
	<path d="M18.5,62.2c2.4-2.2,5.8-3.9,8.3-6.1c2.3-2.2,4.6-5.5,5.1-8.8c0.5-3-0.2-5.1-0.7-7.7c0.3,2.8-2.3,9.2-5.4,8.3
		c-3.4-1-1.5-3.9,0-5.5c2.1-2.3,4.3-5,5.5-7.8c2.3-5.2,1.4-9.9-2.1-14.4c1.1,2.4,1.3,8.6-2,8.9c-3.6,0.4-3.8-3.1-2.3-6.5
		c3.7-8.5-3.4-18.8-7.5-22.7c2.1,5,3,9.5,1.2,15.1c-1.7,5.2-4.3,8.5-7.4,12.8c-2.3,3.2-4.4,8.2-3.2,13.5c0.5,2.3,0.9,4.6,1.7,6.8
		c0.8,2,1.9,5.4,0.1,6.9c-2.1,1.8-5.2,0.4-5.7-1.9c-0.5-2.6-1-6.5,1.4-9.2c-3,2.6-4.2,5-5,7.9c-1.4,5.3,0.8,11.6,2.9,15.8
		C4.5,70,8.5,75.5,12.5,78l0.6,0.4C12.8,77.6,10.1,69.7,18.5,62.2z M34.5,44.5c0.2,3.5-0.6,5.5-1.7,8.3c-1.2,2.6-3.7,5.2-6,6.8
		c-2.3,1.7-5.4,2.5-7.9,4.3c-2.3,1.6-4.2,4.1-5.1,6.8c-0.6,2.5-0.9,5-0.7,7.4l0,0.3c1.9-2.6,5.3-2.8,8.3-3.3c1.7-0.3,3.6-0.8,5-1.8
		c1-0.8,3.1-2.3,4-5.1c-1.3,1.4-3.5,2.5-5,2.7c-1.6,0.2-2.2,0.1-3.1-0.3c2.3-0.8,3.8-1.4,5.4-2.4c2.8-1.6,7.5-6,8.2-10.2
		C36.8,53.6,36.4,49.2,34.5,44.5z"/>
</g>
</svg>
