<?xml version="1.0" encoding="utf-8"?>
<!-- Generator: Adobe Illustrator 23.0.3, SVG Export Plug-In . SVG Version: 6.00 Build 0)  -->
<svg version="1.1" id="Layer_1" xmlns="http://www.w3.org/2000/svg" xmlns:xlink="http://www.w3.org/1999/xlink" x="0px" y="0px"
	 viewBox="0 0 43 76.5" style="enable-background:new 0 0 43 76.5;" xml:space="preserve">
<g>
	<path d="M21.1,76.5c-5.5-2.4-13.1-6-16.4-10c-6.3-7.5-6.7-19.8,2-25.1c-4,3.1-3.2,10.1,0.9,11.5c3.8,1.2,5.7-3,4.1-6.5
		c-1.9-4.1-5.3-7.8-5.3-12.5c-0.3-4.1,2.2-8.5,5-10.7c-1.4,7.2,3.1,12.5,7.2,15.4h0.3c-2.8-2.2-4.7-5.7-5.6-9.1
		C10.2,18,18,4.1,27.4,0c-4.6,4.4-2.8,11.9-1.3,16.9C30.2,28.9,43,35.6,43,51C43,69.2,21.1,76.5,21.1,76.5z"/>
</g>
</svg>
