<?xml version="1.0" encoding="utf-8"?>
<!-- Generator: Adobe Illustrator 23.0.3, SVG Export Plug-In . SVG Version: 6.00 Build 0)  -->
<svg version="1.1" id="Layer_1" xmlns="http://www.w3.org/2000/svg" xmlns:xlink="http://www.w3.org/1999/xlink" x="0px" y="0px"
	 viewBox="0 0 37.2 76.3" style="enable-background:new 0 0 37.2 76.3;" xml:space="preserve">
<path d="M17.2,75.8c1-2.9-1.1-6-3.1-7.9C8.4,62.7,1.6,60,0.3,52.8c-1.6-9,4.8-11.1,4.4-18.3c1.5,2.7-0.7,6.8-0.2,9.5
	c0.5,2.9,1.8,5.6,4.2,6.2c-2.3-1-2.9-3.7-3.3-5.9c-0.7-3.4,0.8-6.2,1.3-9.4c0.3-1.7-0.1-3.1-0.8-4.7c-0.9-2.1-3.3-4.1-5.1-3.4
	c3.2-1.6,7.5,1.2,8.7,2.8c2.1,2.6,3.3,5.9,2.6,9.2L12,38.8c1.6-2.6,1.3-5.9,0-8.6c-1.3-2.9-3.1-5.5-4.7-8.2c-1.7-2.8-2-5.2-1.9-8.4
	C5.5,9.2,10.2,0.4,19.2,0c-8,3.5-9.5,14.5-3.5,23c0-5.1,3.7-8.2,8-9c-3.5,0.8-5.2,6-4.2,10.9c0.9,4.1,4.5,7.5,5.5,11.4
	c1,3.5-0.5,6.4-2,9.5c-1.3,2.5-2.1,8.2,2.5,7.3c4.2-0.8,3.7-8,0.9-10.2c4.6,3.4,5,11.3,0.5,13.9c2-1,3.1-2.4,3.5-5
	c1.2-7.2-7.1-14.3-0.7-20.8c-2.3,4.2,0.1,7.9,2.2,11.7c3.4,5.9,7.3,12.9,3.8,19.7c-1.8,3.6-4.9,6.4-8.3,8.8c-3,2.1-6.8,4-10.4,5.2
	L17.2,75.8z"/>
</svg>
