<?xml version="1.0" encoding="utf-8"?>
<!-- Generator: Adobe Illustrator 23.0.3, SVG Export Plug-In . SVG Version: 6.00 Build 0)  -->
<svg version="1.1" id="Layer_1" xmlns="http://www.w3.org/2000/svg" xmlns:xlink="http://www.w3.org/1999/xlink" x="0px" y="0px"
	 viewBox="0 0 37.4 77.5" style="enable-background:new 0 0 37.4 77.5;" xml:space="preserve">
<path d="M1.6,53.3C-1.1,60.6-0.3,68,5.2,72.7c2.7,2.3,7.8,4.8,12.4,4.8C30.7,76,36.5,67.3,37.4,57.4c0.2-2.5-0.4-5.2-1-7.7
	c0,4.9-3.1,9.9-9,9.8c2.9-1.5,4.2-2.7,5.4-4.2c1.6-2.1,2.3-4.5,2-7.1c-0.6-5-5.9-8.3-6.3-13.4c-0.2-3.6,1.5-5.6,4.4-6.9
	c-2.1,0.2-4.9,1.1-6.9,2.4c-3,2.1-4.4,4.8-4.6,7.5c-0.1,1.5-0.1,3.5,0.8,4.8c-3.2-2.9-2.6-5.6-1.8-7.7c1.2-3.2,3.7-5.9,4.1-9.5
	c0.9-7.2-7.2-10-8.7-16.4c-1-3.9,1.8-7.9,3.2-9c-4.4,2.7-9.3,7.1-9.4,13.3c0,3,1.1,5.4,2.8,7.8c0.8,1.2,1.5,2.8,1.1,4
	c-0.2,0.7-0.9,1.4-2.2,1.5C7,27.1,7.3,20.8,9,18.9c-4.1,2.9-7.9,8.7-5,13.5c2.5,4.4,9.6,7.8,9.3,13.3c0,0.2,0,0.4-0.1,0.7
	C11.7,41.6,2.5,34.9,0,35.2c2.5,1.3,5.4,4.7,4.9,8.9C4.7,47.2,2.7,50.3,1.6,53.3z"/>
</svg>
