<?xml version="1.0" encoding="utf-8"?>
<!-- Generator: Adobe Illustrator 23.0.3, SVG Export Plug-In . SVG Version: 6.00 Build 0)  -->
<svg version="1.1" id="Layer_1" xmlns="http://www.w3.org/2000/svg" xmlns:xlink="http://www.w3.org/1999/xlink" x="0px" y="0px"
	 viewBox="0 0 47.3 85.8" style="enable-background:new 0 0 47.3 85.8;" xml:space="preserve">
<g>
	<path d="M47,56.7c-1-7-4.5-13.8-8.9-17.4c6.1,9.4,0.3,19.3-5.4,24.3c3.3-3.5,5.3-7.2,6-11.4c1.2-7.8-1.5-14.3-7.6-19.7
		c-3.5-3-7.1-5.8-10.8-8.4c-3.2-2.3-6.4-5.7-6.3-9.3c-1.2,4.8-0.1,8.4,4.6,13.5c3.9,4.3,5.5,6.2,6.6,12.2c0.5,2.7,0.5,5.3-0.7,7.8
		c2.1-7.1-4.3-14.6-12-14.3c5.1,1.1,6.6,7.6,4.8,12.4c-2,5.3-6.2,8.8-5.7,14.8c0.2,1.9,1.7,4.8,3.9,6.1c-5.3-2.7-6.7-6.9-7.1-12.6
		c0-2.8,0.8-6,0.1-8.9c-0.7-2.7-2.1-4.7-4.5-6.2c6,6.6-0.5,12.7-2.7,19.4c-2.5,7.3-0.3,14.5,4.8,20c2.7,2.9,9.3,6.7,16.7,6.7
		c12.2,0.8,20.2-9.2,21.9-12.9C46.8,67.9,47.9,63.1,47,56.7z"/>
	<path d="M28.2,27.9c1.8,1.3,3,2.3,4.2,3.4c1.1,1.1,2.7,2.8,3.3,5c0.8-3.6-0.3-8.1-1.2-9.9c-1.2-2.3-3.7-5.1-5.7-6.6
		c-2.4-2-4.2-3.1-6.6-5.9C18.6,9.7,16.4,5.3,19.1,0c-1.2,2.3-2.6,4.2-3.3,6.9c-0.9,3.5-1,7.5,0.8,10.7
		C19.1,22.1,24.1,24.9,28.2,27.9z"/>
</g>
</svg>
