<?xml version="1.0" encoding="utf-8"?>
<!-- Generator: Adobe Illustrator 23.0.3, SVG Export Plug-In . SVG Version: 6.00 Build 0)  -->
<svg version="1.1" id="Layer_1" xmlns="http://www.w3.org/2000/svg" xmlns:xlink="http://www.w3.org/1999/xlink" x="0px" y="0px"
	 viewBox="0 0 28.2 79.2" style="enable-background:new 0 0 28.2 79.2;" xml:space="preserve">
<path d="M17.9,76.5c-1.3,0.9-2.6,1.8-3.9,2.7c-1.5-0.3-3.1-0.6-4.5-1.1c-1.4-0.5-2.6-1.1-3.9-1.9c-0.5-0.7-1-1.3-1.3-1.9
	c-2.2-4.2,0-7.1,2.3-11c1-1.9,1.4-4,1-6.2c-0.5-1.9-1.9-4.5-4.3-5.5c6.2-0.4,11.4,6.5,7.9,10.5c1.5-0.9,1.8-2.6,1.6-4
	c-0.6-8.1-15.1-7.7-12.4-16.8c0,2.7,3,4.4,5.5,5.2l-0.3-0.1c-1.3-1-2.4-2.3-3-3.9c-1.5-3.4-0.3-5.6,1.3-8.7c0.8-1.4,0.9-2.9,0.2-4.4
	c-0.3-0.6-1.4-1.7-1.8-2.1c1.9,0.6,3.1,2,3.8,3.7c0.8,2.3-0.8,4.9,0.2,7c1.1,2.2,3.9,2.2,4.8,0.3c0.8-1.7-1-4.4-2.2-5.8
	C5.7,28.5,5,24.9,6.6,21c2.7-6.6,13.7-14.2,5.5-21c3.3,1.6,7.1,5.2,8,8.6c0.7,3.4-0.6,6.1-2.2,9c-1.5,2.6-3.9,6.2-2.5,9.1
	c1.8,3.9,6.7,2.5,8.1-0.9c1.2-2.7-0.4-6-2.1-8.3l0.2,0.1c4.3,4,7.6,8.7,5.8,14.4c-1.8,5.8-7.9,9.1-10.9,14.4
	c-1.6,2.9-1.2,5.3,0.1,7.9c-0.2-3.5,1.5-6,3.7-8.1c1.6-1.6,5.4-3.9,7.8-3.9l0.1,0.1c-2.9,1.2-4.9,3-5.9,5.1
	c-2.1,4.3-0.4,7.9,1.6,11.9c1.4,2.8,3,6.8,1.6,10.2c-0.9,1.3-2,2.4-3.2,3.4C20.9,74.4,19.4,75.5,17.9,76.5z"/>
</svg>
