<?xml version="1.0" encoding="utf-8"?>
<!-- Generator: Adobe Illustrator 23.0.3, SVG Export Plug-In . SVG Version: 6.00 Build 0)  -->
<svg version="1.1" id="Layer_1" xmlns="http://www.w3.org/2000/svg" xmlns:xlink="http://www.w3.org/1999/xlink" x="0px" y="0px"
	 viewBox="0 0 50.7 83" style="enable-background:new 0 0 50.7 83;" xml:space="preserve">
<g>
	<path d="M48.3,51.4c-2-4.4-5.3-8.3-6.6-13.1c-1.7-6.1,1.8-10.6,6.5-12.3c-2.4,0.3-4.4,0.7-6.6,1.5c-8.7,3.4-13.8,13.1-7.8,22.1
		c-3.3-5-3.2-8.4-2.6-12.5c1.2-7.8,6.3-13.3,4.3-22.1C33.4,6.8,25.6,1.4,17.8,0c4.6,2.9,7.1,10.4,5.1,17.2
		c-2,7.1-7.1,13.1-11.7,18.7C2.5,46.5-5.2,59.5,4.5,72.3c5.3,7,15.3,10.8,21.4,10.7c5.9-0.2,11.5-2.5,15.5-5.6
		C51,70.1,53,60.9,48.3,51.4z M39.1,76.6c-3.4,2.6-9,4.9-13.3,4.9h-0.4C12,80,2.5,67.9,5.7,53.6c0.4,3.6,3.9,8.9,8.3,9.4
		c-8-7.7-4.4-16.7-1.7-20.8c2.6-3.9,6.7-8.5,9.5-12.3c2.6-3.6,4.6-7.4,5.7-11.5c0.9-3.6,1-7.7-0.8-11.1c6.4,5.1,7.1,11.3,4.7,19.4
		c-1.9,6.6-5.5,12-2.1,18.7c1.3,2.6,3.3,4.3,5.8,5.3c-3.2-5.9-5.6-13.6,5-19.2c-2,3-2.1,7.7-0.5,11.2c2.3,5,5.5,9.3,7.2,14.6
		C49.2,65.2,45.9,71.4,39.1,76.6z"/>
	<path d="M35.4,53.9c0.8,2.2-0.7,7.7-4.1,9.4c1.6-3.1-1.2-8.3-3.2-10.6c-1.4-1.8-3.2-3.4-4.3-5.4c-1.2-2-1.6-4.4-1.3-6.6
		c0.2-1.7,1-4.1,3-7c-4.8,2.8-10.2,8.3-11.5,13.6c-0.7,2.6-0.7,5.4,0.4,8.2c1.3,3.3,4.8,5.8,7.1,8.4c2.5,3,2.1,6.2,0,8.6
		c-2.7,0.2-6.3-2-7.5-5.8c0.3,9.6,8.8,13.3,12.3,13.4H27C37,78,41.2,68,38.7,59.7C38.1,57.5,36.9,55.6,35.4,53.9z"/>
</g>
</svg>
