<?xml version="1.0" encoding="utf-8"?>
<!-- Generator: Adobe Illustrator 23.0.3, SVG Export Plug-In . SVG Version: 6.00 Build 0)  -->
<svg version="1.1" id="Layer_1" xmlns="http://www.w3.org/2000/svg" xmlns:xlink="http://www.w3.org/1999/xlink" x="0px" y="0px"
	 viewBox="0 0 56.5 84.7" style="enable-background:new 0 0 56.5 84.7;" xml:space="preserve">
<path d="M28.4,84.7c-4.5,0-11.1-1.8-12.8-2.8C2.3,74.4-1.5,63.6,0.5,55.7c0.8,4.9,5.2,11.6,9.3,14c2.5,1.4,4.3,1.7,8.8,2.2
	c-5.4-1.5-9.5-4.7-12.8-9.3c-5.4-7.4-6.6-17.4-1.5-25.4C9.4,29,23.9,15.7,16.2,10.4c5.6,1.3,5.5,8.4,3.6,12.2
	c-2.9,5.9-8.3,11.3-8.4,18c-0.2,5.9,2,11.7,7.2,15.7c-2.8-3.1-4.4-6.2-5.1-10.5C12,36.4,17.9,29,24.2,22.4
	C30.5,16.1,38.5,7.5,32.7,0h0.2c10.5,4.8,12.3,16.4,6.7,25.7c-2.6,4.4-5.2,8.5-7.7,13.1c-2.5,4.5-2.9,11.1,2.8,11.4
	c3.1,0.2,4.9-2.5,4.7-5.3c-0.2-2.5-2.5-4.3-5.1-4.8c4.3-0.7,8.4,1.4,9.8,5.3c2,5.2-1.5,8.3-3.6,12.7c-1,2.1-1.2,6.1,0.4,7.7
	c-1.7-4.4,1.4-7.5,3-9.7c2-2.5,3.7-4.1,4.5-7.2c1.6-6.7-5.2-10.6-6-16.7c-0.5-3.8,1.2-6.9,3.4-9c-5.7,5.9,3.2,14.5,7.1,19.6
	c4.6,6.1,4.8,13-1.2,19.6c-3,3.2-8.7,6.1-8.2,11.1c0-2.6,4.2-8.3,10.6-8c-3.6,0.6-5.1,4.5-5.9,7c-0.9,2.9-2.9,5.4-5.4,7.2
	c-4.6,3.2-8.7,4.4-13.6,5H28.4z"/>
</svg>
