<?xml version="1.0" encoding="utf-8"?>
<!-- Generator: Adobe Illustrator 23.0.3, SVG Export Plug-In . SVG Version: 6.00 Build 0)  -->
<svg version="1.1" id="Layer_1" xmlns="http://www.w3.org/2000/svg" xmlns:xlink="http://www.w3.org/1999/xlink" x="0px" y="0px"
	 viewBox="0 0 55.1 77.9" style="enable-background:new 0 0 55.1 77.9;" xml:space="preserve">
<path d="M27.3,77.9c-12.6,0-19.8-7.4-21.8-9.7c-3.5-4.1-6.6-13-5.1-19.6c0,4.7,10.1,11.1,18,7.4c-1.2-0.1-3.8-1.2-5.6-2.2
	c-5-2.9-8.3-10-6.1-15.6c-0.2,4.2,2.8,7.4,5.1,7.4c-2.1-2.5-3-5.4-2.3-8.7c1.1-6.7,6.3-11.6,10.2-16.4c2.7-3.1,5.4-6,7.5-9.7
	c1-1.9,3.5-7.4,1-10.7c4.4,3.4,4.6,9.8,1.9,15.1c-1.9,3.8-3.7,6.2-5.7,10.1c-1.8,3.6-4.2,7-3.5,11.2c0.7,4.1,3.1,7.4,7,7.4
	c5,0,7.6-4.1,6.5-8.8c2.3,2.7,3.7,6.9,2.6,10.8c-1.1,4.4-4.9,8.5-8.8,9.8c5.3,0.2,9.9-1.7,13.1-6.6c3.3-5.1,4.3-10.7,2.9-16.6
	c-0.7-3.4-2.6-6.8-1-10c-0.9,4.2,3.7,8.2,5.6,11.4c2.3,3.9,3.4,7,2.8,11.5c-0.4,3.3-2,7.8-4.2,9c1.8-0.7,5.9-3.6,6.3-8.5
	c2.3,4.8,0.9,12-0.8,15.8c-2,4.5-6.2,10-11.2,12.8c-3.1,1.8-8.6,3.4-13.2,3.7H27.3z"/>
</svg>
