<?xml version="1.0" encoding="utf-8"?>
<!-- Generator: Adobe Illustrator 23.0.3, SVG Export Plug-In . SVG Version: 6.00 Build 0)  -->
<svg version="1.1" id="Layer_1" xmlns="http://www.w3.org/2000/svg" xmlns:xlink="http://www.w3.org/1999/xlink" x="0px" y="0px"
	 viewBox="0 0 31.6 76.6" style="enable-background:new 0 0 31.6 76.6;" xml:space="preserve">
<path d="M14.4,76.6c-5.1-3.4-7.3-5.4-10.8-9.9c-3.8-4.9-4.5-12.4-2.8-18.4c1.6-5.7,4.8-10.5,7.7-15.8c2.9-5.2,6-9.7,7.2-15.6
	c1.1-5.5,0.7-13.1-2.1-17c4,4.7,7.7,12.7,9.4,19.5c0.8,3.8,1.4,8.1,0.5,11.9c-0.7,4.1-3.7,7.3-5.4,11.3c-1.7,4-1.7,11.3,1.2,14.9
	c3.3-2.5,9.6-5.5,10.1-12C38.7,63.1,15,68.3,15.8,76.6L14.4,76.6z"/>
</svg>
