<?xml version="1.0" encoding="utf-8"?>
<!-- Generator: Adobe Illustrator 23.0.3, SVG Export Plug-In . SVG Version: 6.00 Build 0)  -->
<svg version="1.1" id="Layer_1" xmlns="http://www.w3.org/2000/svg" xmlns:xlink="http://www.w3.org/1999/xlink" x="0px" y="0px"
	 viewBox="0 0 60.7 84.4" style="enable-background:new 0 0 60.7 84.4;" xml:space="preserve">
<path d="M30,84.4c-7.9,0.5-15.2-2.9-18.7-5.5c-5.4-3.9-9.5-10-10.7-16.9c-0.9-5.8-1.2-11.5,3-17.8C1.2,53,9.8,62,16.9,61.4
	c-5.5-1-9.7-8.1-9.7-13.7c0-9.4,7.5-17.3,14-24.4C27,16.8,32.4,5.9,26.3,0h0.3c4.1,1.1,8.4,7.1,9.3,10.7c1.5,6.2-0.2,11.5-2.4,15.9
	c-2.2,4.2-5.9,7.6-6.9,12.5c-0.4,1.7-0.1,3.6,0.6,5.1c1,2.2,3,3.7,5.5,2.7c5.5-2.2,3.3-9.5-0.3-13c6.9,3.7,12.5,11.3,8.3,20.4
	c-0.9,2-2.3,3.8-4.4,5c5.8-2.2,9.6-9.5,9.9-15.8c0.3-6-4.3-12.3-2.8-18.1c0.9-3.3,2.8-6.5,6.4-7.8c-7.5,6.4,1.8,16.4,6.4,23
	C63.5,51.1,61.4,65,53.7,74c-4.4,5.1-12.5,10.4-22.1,10.4H30z"/>
</svg>
