<?xml version="1.0" encoding="utf-8"?>
<!-- Generator: Adobe Illustrator 23.0.3, SVG Export Plug-In . SVG Version: 6.00 Build 0)  -->
<svg version="1.1" id="Layer_1" xmlns="http://www.w3.org/2000/svg" xmlns:xlink="http://www.w3.org/1999/xlink" x="0px" y="0px"
	 viewBox="0 0 35.9 80.6" style="enable-background:new 0 0 35.9 80.6;" xml:space="preserve">
<path d="M18,80c5.1-7.7-1.9-16.3-4.3-20.2c-1.8-2.9-8.7-14.6,3.6-28.2c-1.2,3.7-0.9,7.9,0,10.5c1.1,3.3,2.2,5.4,4.2,8.9
	c2,3.5,5.1,7.2,6.1,11.1c1.7,6.7,0.6,14.6-6.7,18.5c4-0.7,21-10,12.9-28.6c-3.1-7-7.1-12-4.8-17.7c-4.1,2.6-4,6.5-4,9.8
	c-1.9-1.7-2.8-4.3-2.6-7c0.1-3.2,1.1-6.3,1.6-9.3c0.8-4.1,1.4-6.3,1.6-9.9c0.3-3.5-0.3-7.1-1.4-10.4c-0.9-2.5-2.3-5-4.7-7.4
	c2.4,4.1,2.2,6.7,1.7,10.8C20.9,14,19.1,18,17,21.6c-2,3.5-4.3,7.1-6.6,10.5C8.1,35.9,6,40,5.7,44.4c-0.3,6.1,1.7,11.2,4.5,17v0.1
	C9.3,59,4.9,54.8,0,57.4c3.7,0.7,5.6,4.3,6.3,8.1C7.9,75,14.7,79.4,18,80z"/>
</svg>
