<?xml version="1.0" encoding="utf-8"?>
<!-- Generator: Adobe Illustrator 23.0.3, SVG Export Plug-In . SVG Version: 6.00 Build 0)  -->
<svg version="1.1" id="Layer_1" xmlns="http://www.w3.org/2000/svg" xmlns:xlink="http://www.w3.org/1999/xlink" x="0px" y="0px"
	 viewBox="0 0 54.8 85.2" style="enable-background:new 0 0 54.8 85.2;" xml:space="preserve">
<path d="M28,85.2c-3.9,0-6.7-0.9-8.6-1.5C4.1,78.6-3.8,62.9,1.8,51.3c2-3.8,4.3-5.9,8.2-8c-5.3,3.1-5.6,11.4-0.9,16.2
	C0.5,42,31.8,29.5,24.4,19.9c-2.5-3.2-7.4-1.9-9.7,0.7c1.2-5.1,10.1-7.7,13.7-1.7c3.6,5.8-0.6,11.9-1.9,17.4
	c-0.7,3.6,0.1,5.7,2.5,8.1c-4.7-7.1,1.2-12.5,3.6-18.7c2.2-6,3.3-11.6,0.8-17.4c-1.9-4.4-4.1-6.7-8.9-8.2
	c6.9,0.2,14.1,4.2,16.9,12.7c1.1,3.3,1.7,7.6,0.9,10.8c-0.6,2.4-1.7,5.7-0.3,7.3c0.6,0.6,1.8,1.4,3.2,1c3.9-1.1,3.8-8.3-1.3-9.9
	c7.3,0.3,13.4,7.6,10.1,16.4c-2.6,7.1-12.1,9-15.2,15.7c-1.8,3.6-0.6,7.3,2.2,10.2c-3.8-6,0.2-16.6,10.4-16.3
	c-5.3,0.3-6.2,6.9-4.7,10c1.6,3.1,4.6,6.7,4.1,12.9c-0.4,5.4-5.7,10.4-12.2,12.7c-2.7,1-7.8,1.7-10.1,1.7H28z"/>
</svg>
