<?xml version="1.0" encoding="utf-8"?>
<!-- Generator: Adobe Illustrator 23.0.3, SVG Export Plug-In . SVG Version: 6.00 Build 0)  -->
<svg version="1.1" id="Layer_1" xmlns="http://www.w3.org/2000/svg" xmlns:xlink="http://www.w3.org/1999/xlink" x="0px" y="0px"
	 viewBox="0 0 19.7 72.1" style="enable-background:new 0 0 19.7 72.1;" xml:space="preserve">
<path d="M5.8,72.1c0-6.5,4-9.6,5.2-13.9c1.3-4.1-0.1-8.6-2.2-12.3c-2.8-5-5.4-7.8-7.5-12.2c-3-6.1,0.3-11.7,2.5-17.4
	c2-5,3.8-12.7-0.2-16.3c6.1,4.2,8.6,10.2,6.5,17.4c-1.5,5.2-4.7,8.7-2.3,14.1c0.9,1.9,2.2,3.8,5,5.3c-1.5-3.4-5.2-10.4,0.4-14.7
	c-4.8,6.4,3.3,15.2,5.6,21c2.4,6.5,0.6,13-5.8,18.7C10,64.3,5.8,67.1,5.8,72.1z"/>
</svg>
