<?xml version="1.0" encoding="utf-8"?>
<!-- Generator: Adobe Illustrator 23.0.3, SVG Export Plug-In . SVG Version: 6.00 Build 0)  -->
<svg version="1.1" id="Layer_1" xmlns="http://www.w3.org/2000/svg" xmlns:xlink="http://www.w3.org/1999/xlink" x="0px" y="0px"
	 viewBox="0 0 37.8 78.7" style="enable-background:new 0 0 37.8 78.7;" xml:space="preserve">
<path d="M19.1,78.7c-2.3-0.2-4.2-0.6-6.1-1.4C4.9,73.7-1.3,64.5,0.2,56.8c0.1,2,1.5,4.2,3,6.1c1.3,1.5,4.3,3.4,5.9,4
	c-2.1-1.3-5-4.8-6-6.7c-1.3-2.6-1.6-5-0.7-7.8C3.6,48.9,5,47.8,7,45.6c3.8-4.4,3.9-8.7-0.3-12.1c2.5,0.5,4.8,2.2,6,4
	c1.7,2.2,1.1,4.9,0.3,6.5c3.3-1.4,2.6-4.9,2.2-5.8c-1.3-2.8-3.1-3.5-5-5.1c-1.8-1.5-2.7-3.6-2.1-5.9c0.7-2.6,5.4-7.8,1-11.6
	c2.2,0.4,3.8,1.3,4.3,3.1c0.6,1.8,0,2.8-0.7,4.8c-1.2,3.7,3.6,5.1,4.5,1.8c0.9-3.3-2.2-5.8-3-9c-1-3.6,1.5-5.6,4.1-8
	c2.7-2.6,3.5-5.4,2.3-8.2c1.9,2.2,3.9,4.6,5.3,7.3c1,2.1,1,5-0.3,7c-1.6,2.7-5,3.6-6,5.3c-1.1,2.1,0.7,5.6,4,3.9
	c2.5-1.3,2.4-4.8,1.2-6.5c2.4,1.7,3.9,4.4,4.2,6.5c0.4,2.5-0.3,4.4-1.8,6.5c-1.4,2-3.6,4.4-3.4,6.8c0.3,3.1,3.6,3.7,4.7,1
	c1.1-2.7,1.8-3.7,4.9-4.2c-2.6,1.4-2.7,3.1-1.4,5.3c1.2,2,2.3,3.2,2.3,5.3c0,2.2-1.3,3.8-3.1,5.3c-1.7,1.5-3.3,3-4.3,5
	c-1.3,2.5-0.6,4.8,0.6,5.5c-1.1-1-0.9-2.5-0.4-3.7c1.7-4.5,11-6,9.2-11.3V45c2.2,2.4,2.3,5.7-0.1,7.9C35,54.1,33.3,55,33,56.6
	c-0.3,1.3,0.7,3,1.2,4.2c1,2.6,1.6,4.9,0.9,7.7c-0.9,3.3-3.9,5.9-6,7.1c-2.5,1.5-5.8,2.4-9.4,3L19.1,78.7z"/>
</svg>
