<?xml version="1.0" encoding="utf-8"?>
<!-- Generator: Adobe Illustrator 23.0.3, SVG Export Plug-In . SVG Version: 6.00 Build 0)  -->
<svg version="1.1" id="Layer_1" xmlns="http://www.w3.org/2000/svg" xmlns:xlink="http://www.w3.org/1999/xlink" x="0px" y="0px"
	 viewBox="0 0 51.3 84.5" style="enable-background:new 0 0 51.3 84.5;" xml:space="preserve">
<path d="M25.4,84.5c-10.5,0.4-18.9-7.3-20.5-9.6c-6.5-9.7-6.5-20.1,0.2-25.7c-2.5,4.1,1,8.3,4.7,10.6c2.6,1.7,7.9,5.3,4.2,10.4
	c2.9-2.1,2.3-5.7,0.3-8.5c-3.3-4.7-7-8.5-7.4-14.7c-0.3-5.9,2-10,5.7-13.9c-4.5,7.4,0.2,15.2,5.7,18.7c-4.3-4.1-7.1-8-5.4-14.8
	c1.7-7.1,6.9-11.2,11.3-16.9c2.1-2.8,4.7-6.5,4.6-10.5c0-3.4-1.6-7.6-4.7-9.5c6.8,2.9,13.7,10.6,13.1,19.1
	c-0.7,7.4-6.7,9.3-9.7,15.2c-1.3,2.6-1.3,5.6-0.2,8.2c-2-9.5,8.4-16.7,15.1-13.7c-7.4-1.1-10,8.4-7.9,13.7c2.6,5.9,9.2,7.9,8.7,15
	c-0.2,3.6-2.5,5.9-5.4,7.7c4-1,6.4-3.9,6.5-9c0.2-4.7-3.6-7.2-4.7-11.5c-0.7-2.3-0.4-5.1,1.3-6.7c-3.5,6.2,6.1,11.7,9.2,18.7
	c3.3,7.4-0.4,16.5-6.8,21.8c-4.6,3.7-12,6-16.8,6H25.4z"/>
</svg>
