<?xml version="1.0" encoding="utf-8"?>
<!-- Generator: Adobe Illustrator 23.0.3, SVG Export Plug-In . SVG Version: 6.00 Build 0)  -->
<svg version="1.1" id="Layer_1" xmlns="http://www.w3.org/2000/svg" xmlns:xlink="http://www.w3.org/1999/xlink" x="0px" y="0px"
	 viewBox="0 0 31.6 79.3" style="enable-background:new 0 0 31.6 79.3;" xml:space="preserve">
<g>
	<path d="M23.3,38.9c-1.3-6.4-5.5-9.7-8.2-14.8c-0.9-1.7-1.4-4.1-0.6-7.1c0.3-1.1,1.6-3.8,3.6-5c-1.2,0.5-3.5,2.2-4.3,2.9
		c-2.8,2.4-5.1,5.3-6.6,8.7c-1.3,2.8-2,5.6-1.5,8.6c0.6,3.3,5.1,7,7.3,9.5c2.7,3.1,7.3,9.8,6.8,13.5C24,48.6,24.1,42.5,23.3,38.9z"
		/>
	<path d="M9.1,42.5c-4.5-3.8-6.1-8.7-4.7-12c-9.1,11.3,0,21,1.6,21.8c-3.2,0.7-5.4-1.7-5.4-4.1c-1.8,4.5,0.8,7.3,3.2,9.3
		c10.7,8.9,9.9,15.9,8.9,22c1.3-1.7,7-8.3,7.2-17.8C20,52.5,14.7,47.2,9.1,42.5z"/>
	<path d="M31.2,36.2c-1.1-5.1-8.8-12.3-4.7-17.6c-4.7,3.6-1.6,9.6-0.3,12.4c-2.4-1.2-3.5-2.8-4.2-4.4c-2-4.5,0.7-7.5,2-11.9
		C25.7,8.6,23.6,3.6,18.4,0c3.2,2.9,3.5,7.7-0.2,14.9c-2.3,4.6-1.2,7.8-0.2,9.6c2.7,5,7.1,7.5,8.4,13.9c1.6,8-4.6,17.4-4.8,18.2
		C22.4,55.9,33.6,47.3,31.2,36.2z"/>
</g>
</svg>
