<?xml version="1.0" encoding="utf-8"?>
<!-- Generator: Adobe Illustrator 23.0.3, SVG Export Plug-In . SVG Version: 6.00 Build 0)  -->
<svg version="1.1" id="Layer_1" xmlns="http://www.w3.org/2000/svg" xmlns:xlink="http://www.w3.org/1999/xlink" x="0px" y="0px"
	 viewBox="0 0 51 106" style="enable-background:new 0 0 51 106;" xml:space="preserve">
<g>
	<path d="M25.2,0.4C24.9,0.2,24.7,0,24.6,0C24.8,0.1,25,0.3,25.2,0.4z"/>
	<path d="M44.2,60.5c-0.6-5.7,3.4-10.4,6.7-12.2C47.5,48,35,57.1,33,63.6c-0.1-0.3-0.1-0.6-0.1-0.9c-0.5-7.4,9.3-12,12.6-18.1
		c4-6.6-1.2-14.5-6.8-18.4c2.3,2.5,2.7,11.2-2.9,10.6c-1.8-0.2-2.7-1.1-3-2.1c-0.5-1.7,0.4-3.9,1.5-5.5c2.2-3.3,3.8-6.6,3.8-10.7
		c-0.2-8.4-6.8-14.5-12.8-18.2c1.8,1.5,5.6,6.9,4.3,12.3C27.4,21.3,16.4,25.2,17.6,35c0.6,5,4,8.6,5.6,13c1.1,2.9,1.9,6.7-2.4,10.6
		c1.1-1.8,1.2-4.5,1-6.6c-0.3-3.7-2.1-7.3-6.3-10.2c-2.7-1.8-6.5-3-9.4-3.3c4,1.7,6.3,4.4,6,9.3C11.8,54.7,4.5,59.3,3.7,66
		c-0.5,3.6,0.5,6.8,2.7,9.7c1.6,2,3.4,3.6,7.3,5.7C5.7,81.6,1.4,74.7,1.4,68.1c-0.8,3.3-1.7,7-1.4,10.5c1.1,13.6,9,25.4,26.9,27.4
		c6.3,0,13.3-3.5,17-6.6c7.5-6.4,8.6-16.5,5-26.4C47.2,68.9,44.6,64.7,44.2,60.5z M41.7,98.3c-2.8,2.5-9,5.9-13.4,6.3h-0.8
		c-10-0.9-22.7-9.8-22.6-21.7c5.2,9.5,13.3,4.2,11.9-2.1c-1.6-7-9.9-7.6-6.3-17c1.9-4.9,9.7-7.1,6-13c4.8,2.9,4.3,6.7,1.9,11.3
		c4.4-0.2,7.6-4.7,8.2-7.5c0.7-3.5,0.3-6.9-0.7-10c-1.1-3-3.7-7.7-3.8-10.9c-0.6-8,12.9-11.2,11.1-19.1c3.6,4.5,1.9,9.5-1,14.5
		c-2.4,4.2-2.4,10.4,4.4,10.8c2.9,0.2,5.9-2.9,6-5.9c4.7,8-1.7,12.9-6.4,17.6c-4.6,4.5-7,11.3-3,16.6c3.5,5.4,10.5,9.1,9,15.8
		c2.4-1.5,3.6-7.8,2.8-10.3C51.6,82.4,49.5,91.4,41.7,98.3z"/>
	<path d="M28,60.2c-3.8,2.9-7.2,6-7.8,11.7c-0.5,4.9,3.1,8.3,4.9,12.5c1,2.1,0.4,4.7-1,6.1c0.3-3.3-2.1-4.6-4.5-5.3
		c2.7,2.4-0.2,6.3-0.2,10.1c0,4.4,4,7.6,7.9,8c5.3-0.4,8.9-3.3,11-6.6c4.1-6.2,0.7-13.5-3.8-18.7C30.2,72.5,25,68.6,28,60.2z"/>
</g>
</svg>
