<?xml version="1.0" encoding="utf-8"?>
<!-- Generator: Adobe Illustrator 23.0.3, SVG Export Plug-In . SVG Version: 6.00 Build 0)  -->
<svg version="1.1" id="Layer_1" xmlns="http://www.w3.org/2000/svg" xmlns:xlink="http://www.w3.org/1999/xlink" x="0px" y="0px"
	 viewBox="0 0 41 85.8" style="enable-background:new 0 0 41 85.8;" xml:space="preserve">
<path d="M22.9,85.8c10.5-1,16-8.8,16.9-14.4c1.2-7-0.8-12.5-4.3-18.1C32,47.8,33.7,40.7,41,39.9C30.1,39.3,26.5,49,26.7,52.3
	c-0.4-3.1,0.9-5.7,2.2-8.2c2.8-5,5.2-8.9,5.6-14.6c0.4-6.2-3.7-10.7-7.9-13.2c2,1.7,4.5,4.9,2.8,9.8c0-2.1-0.5-4.3-1.7-6.1
	c-2.3-3.8-6.8-5.6-9.1-9.4c-2.5-4.1-1.1-9,1.2-10.6c-4.5,2.7-8.5,8.2-5.7,14.9c2.3,5.8,9.8,9.8,10,16.1c0.1,3.2-0.5,5.3-3.2,8.5
	c2-2.8,2.3-6.4,0.4-9.8c-1.7-2.9-4.5-5.9-9.1-5.2c6.9,2.3,3.7,11.1,1.1,15.4c-3,5.3-7.8,9.8-6.4,16.4c0.5,2.1,2.7,5.5,4,6.9
	C3,56.8,5.8,47.5,6.8,44.7c-7.9,7.4-7,17.3-6.4,21.9C1.8,78,10.4,85.1,22.2,85.8H22.9z"/>
</svg>
