<?xml version="1.0" encoding="utf-8"?>
<!-- Generator: Adobe Illustrator 23.0.3, SVG Export Plug-In . SVG Version: 6.00 Build 0)  -->
<svg version="1.1" id="Layer_1" xmlns="http://www.w3.org/2000/svg" xmlns:xlink="http://www.w3.org/1999/xlink" x="0px" y="0px"
	 viewBox="0 0 36.4 77.9" style="enable-background:new 0 0 36.4 77.9;" xml:space="preserve">
<path d="M14.8,77.1c0.1-1.4-0.2-2.7-0.6-3.9c0.2-1.7-1.2-3.2-3-4.6C6.5,65.4,0.6,62.3,0.6,56.4c0-5.1,8.8-9.3,3.9-13.9
	c2.1,0.9,4.3,2,5.2,4c0.7,1.9-0.4,3.6-0.2,5.4c0.5,4.5,6.6,2.5,5.5-1.9c-0.9-3.6-5.5-5.9-8.9-7.9c-3.4-2-6.8-5-6.1-9.1
	c0.4-2.5,1.5-5.3,5.7-7c-2.5,2.6-0.7,7.8,2.9,6.8c4.6-1.3,0.4-6.5-1-8.2c-2.3-2.8-2.8-5.6-1.9-8.1C8,10.5,19.8,7,13.7,0
	c2.5,0.9,5,3.3,5.4,5.7c0.9,5.1-7.3,7.9-6.4,13c0.5,2.5,3,4,5.7,2.6c2.7-1.4,2.9-4,2.3-6.4c1.3,1.1,1.6,3.1,1.8,4.6
	c0.4,4-1.4,7.1-3.9,9.9c-2.9,3.3-2.9,6-0.7,9.6c0.8-6.4,6.6-9.1,11.8-8.8h-0.2c-2.8,1.7-4.8,3.9-5.5,6.5c-2,5.3,0,9.1,4.3,13.5
	c4.1,4.2,6.3,8.2,2.1,13.3C33,61.1,36,58,35,54.2c1.1,1.9,1.6,3.7,1.4,5.7c0,3.7-1.4,7.7-4.3,10.5c-3.1,3.2-7.7,6.4-11.7,7.3h-5.7
	C14.7,77.6,14.8,77.4,14.8,77.1z"/>
</svg>
