<?xml version="1.0" encoding="utf-8"?>
<!-- Generator: Adobe Illustrator 23.0.3, SVG Export Plug-In . SVG Version: 6.00 Build 0)  -->
<svg version="1.1" id="Layer_1" xmlns="http://www.w3.org/2000/svg" xmlns:xlink="http://www.w3.org/1999/xlink" x="0px" y="0px"
	 viewBox="0 0 52.8 109.3" style="enable-background:new 0 0 52.8 109.3;" xml:space="preserve">
<path d="M45.8,62.2c-0.7-5.9,3.5-10.8,7-12.6c-3.6-0.3-16.6,9.1-18.6,15.9c-0.1-0.3-0.1-0.6-0.1-0.9c-0.5-7.7,9.6-12.5,13.1-18.7
	c4.1-6.9-1.2-15-7-19.1c2.3,2.6,2.8,11.6-3,11c-1.8-0.2-2.8-1.1-3.1-2.2c-0.5-1.7,0.4-4,1.6-5.7c2.3-3.4,3.9-6.8,3.9-11
	c-0.2-8.7-7-15-13.3-18.8C28,1.6,32,7.2,30.6,12.7c-2.2,9-13.6,13-12.3,23.1c0.7,5.2,4.2,8.9,5.8,13.4c1.2,3,2,6.9-2.5,10.9
	c1.2-1.9,1.2-4.6,1.1-6.8c-0.3-3.8-2.2-7.6-6.5-10.6c-2.8-1.9-6.8-3.1-9.7-3.4c4.1,1.7,6.5,4.6,6.2,9.7C12.2,56.3,4.7,61,3.9,68
	C3.4,71.7,4.4,75.1,6.7,78c1.6,2,3.5,3.8,7.6,5.9C5.9,84.1,1.5,77,1.5,70.1C0.7,73.6-0.3,77.4,0.1,81c1.2,14.1,9.3,26.3,27.8,28.4
	c6.6,0,13.8-3.6,17.6-6.8c7.8-6.6,8.9-17.1,5.1-27.4C48.9,71,46.1,66.6,45.8,62.2z"/>
</svg>
