<?xml version="1.0" encoding="utf-8"?>
<!-- Generator: Adobe Illustrator 23.0.3, SVG Export Plug-In . SVG Version: 6.00 Build 0)  -->
<svg version="1.1" id="Layer_1" xmlns="http://www.w3.org/2000/svg" xmlns:xlink="http://www.w3.org/1999/xlink" x="0px" y="0px"
	 viewBox="0 0 62.6 85.4" style="enable-background:new 0 0 62.6 85.4;" xml:space="preserve">
<path d="M28.9,85.4c-16.5,0-25.1-10.2-27.8-16.7c-1.7-4.1-1.6-11.1,1.1-16.3c3.2-6.1,11.2-18.2,1.9-23.9c5.2,1.3,7,5.7,6.2,11
	c-0.9,6.2-4.9,12.6-1.6,18.7c3,5.4,10.7,5.8,12.6-0.8c1.5-5.3-2.2-11.6-7.5-11.6c3.8-1.7,8.4-0.3,11.8,2c3,2,6,5.7,5.4,9.8
	c2.5-7.2-7.3-11.6-11.2-15.4c-5.5-4.6-8.1-12.2-7.4-16.8c1.1-6.2,4-11.3,9.1-14.4c-2.1,2.3-3.6,8-1,11.2C19.6,9.4,30.8,1.4,40.1,0
	c-10.8,4.6-15.7,20.8-7.9,31.3c3.4,4.6,9.6,8.1,13.6,12c10.7,10.5,7.1,19.9,2.8,25.4c11.3-9.6,2.6-23.2-1.8-28.8
	c-2.4-3.2-5-6-4.6-10.4c0.4-3.6,2.2-6.8,5.6-8c-6.3,3.8,1.3,12.6,4.1,15.7c5.2,5.7,9.3,10,10.5,18.1c1.5,10.9-6.9,29.4-30.9,30H28.9
	z"/>
</svg>
