<?xml version="1.0" encoding="utf-8"?>
<!-- Generator: Adobe Illustrator 23.0.3, SVG Export Plug-In . SVG Version: 6.00 Build 0)  -->
<svg version="1.1" id="Layer_1" xmlns="http://www.w3.org/2000/svg" xmlns:xlink="http://www.w3.org/1999/xlink" x="0px" y="0px"
	 viewBox="0 0 47.5 83.4" style="enable-background:new 0 0 47.5 83.4;" xml:space="preserve">
<g>
	<path d="M27.1,83.4c-5.2-0.4-10.1-2.6-14.2-5.4c-4.8-3.3-8.6-6.7-11-12c-2.3-5.1-2.5-10.4-0.6-15.8c2.9-8.1,9.7-14,4.3-22.8
		c5.2,2.7,5.4,7.9,3.5,14.3c-0.8,2.7-0.6,5.3,0.8,7.2c1.3,1.8,4.1,2.9,6.7,1.7c3.1-1.3,4.2-4.1,3.9-6.8C20.3,41.3,19,39,17.7,37
		c-2.7-4.2-6.3-9.8-6.3-14.9c-0.2-4.5,3.1-9.6,6.3-12.4c-2.3,3.1-0.3,7.9,3.5,8.2c5.9,0.7,8.1-6.4,7.2-10.5c-0.5-2.5-1.1-4.7-3-7.4
		l0.1,0.2c7.6,6.1,9.6,15.5,8.2,21.4c-2.5,10.6-11.3,23.4-3.6,31.9c4.6,5.1,11.1,1.9,10.9-3.5c3.9,2.9,6.1,7.4,6.4,12.7
		c0.5,6.6-3.5,11.9-9,15.9c-2.5,1.8-7.6,4.5-9.9,4.7H27.1z"/>
</g>
</svg>
