<?xml version="1.0" encoding="utf-8"?>
<!-- Generator: Adobe Illustrator 23.0.3, SVG Export Plug-In . SVG Version: 6.00 Build 0)  -->
<svg version="1.1" id="Layer_1" xmlns="http://www.w3.org/2000/svg" xmlns:xlink="http://www.w3.org/1999/xlink" x="0px" y="0px"
	 viewBox="0 0 61.3 99.9" style="enable-background:new 0 0 61.3 99.9;" xml:space="preserve">
<path d="M1.6,75.7c1.4,12.1,14.8,22.7,26.5,24.2h1.5c8.3,0,23.9-8.3,30.1-23.7c1.2-3.1,1.5-5,1.6-8.7c-2,6.8-4.6,8-5.7,8.6
	c2.5-3.8,3.6-8.1,3.6-11.4c0-3.8-1-7.8-3.3-11.5C58,60,55,64,53.5,65.3c1.8-4.8-1.9-9.6-5.2-12.6c-4.1-3.5-6.6-7.4-5.9-11.8
	c0.3-2.2,0.7-4.7,3.2-6.9c-5.7,1.6-6.4,6.5-7.8,10.5c0.9-2.7,1-7.2-0.3-10.6c-1.7-4.2-11.9-16.7-0.6-34
	C25.6,5.3,16.6,23.4,17.2,27.1c-0.6-3-0.2-6,0.9-8.9C9.2,28.9,8.3,43.3,9.4,49c0.3,2,1.1,5.7,3.6,11.2C10.6,56.9,6.2,50,6.4,42.4
	c-10,16.8-6,26.9-2.7,32.6c1.5,2.7,3.1,5,5.6,7.2C8.1,82.7,3.3,79.2,1.6,75.7z M27.7,96c3-5.2-1.6-10.7-3.2-13.3
	c-1.2-2-5.9-9.9,2.4-19.2c-0.8,2.5-0.6,5.4,0,7.1c0.8,2.3,1.5,3.7,2.9,6.1c1.4,2.4,3.5,4.9,4.2,7.6c1.1,4.5,0.4,9.9-4.5,12.5
	C29.1,96.7,28.5,96.4,27.7,96z M10.8,73.3c0-14.2,11.2-20.5,14.7-31.5c1.4-4.6,2.9-11.6-1.1-15.7c8.2,3.8,15,16.7,12.3,27.3
	c-0.8,3.1-2.5,6.4-4.9,8.4h0.3c3.6-2.6,7.5-7.5,6.3-14.2c2.5,2,4.7,6.1,4.4,9.9c0,4.4-3,7.8-4.7,11.6c-1.4,3.2,0.3,7.1,3.6,6
	c3.6-1.2,4.3-7.7,0.8-10.6c7.6,4.9,7.2,16.3,1.8,23.2c-2.9,3.7-9.5,7-14.3,9.3c0,0-0.1-0.1-0.4-0.1c2.9-0.6,14.1-7,8.6-19.4
	c-2.1-4.8-4.8-8.2-3.2-12.1c-2.8,1.8-2.7,4.4-2.7,6.7c-1.3-1.2-1.9-2.9-1.8-4.8c0.1-2.2,0.7-4.3,1.1-6.3c0.5-2.8,0.9-4.3,1.1-6.7
	c0.2-2.4-0.2-4.8-0.9-7.1c-0.6-1.7-1.5-3.4-3.2-5.1c1.6,2.8,1.5,4.5,1.1,7.4c-0.3,2.2-1.5,4.9-2.9,7.3c-1.4,2.4-2.9,4.8-4.5,7.2
	c-1.5,2.5-3,5.4-3.2,8.4c-0.2,4.2,1.1,7.6,3.1,11.5v0.1c-0.7-1.7-3.7-4.6-7-2.8c2.5,0.5,3.8,2.9,4.3,5.5c0.5,2.6,1.5,4.7,2.7,6.2
	C16.9,89.2,10.8,82.9,10.8,73.3z"/>
</svg>
