<?xml version="1.0" encoding="utf-8"?>
<!-- Generator: Adobe Illustrator 23.0.3, SVG Export Plug-In . SVG Version: 6.00 Build 0)  -->
<svg version="1.1" id="Layer_1" xmlns="http://www.w3.org/2000/svg" xmlns:xlink="http://www.w3.org/1999/xlink" x="0px" y="0px"
	 viewBox="0 0 34.8 71.1" style="enable-background:new 0 0 34.8 71.1;" xml:space="preserve">
<path d="M3.1,46.7c-0.6,2,0.4,7,2.2,8.2c-1.2-5.3,4.4-8.2,7.1-12.5c3.1-4.2,1.3-9.5-2.4-13.1C6.4,25.5,1.3,21.7,5,15.4
	c0.1,2.4,2.5,4.8,4.8,4.6c5.4-0.3,5.4-5.2,3.5-8.5C11,7.5,9.6,3.6,12.5,0c-1.4,6.2,9.2,8.8,8.7,15.1c-0.1,2.5-2.2,6.2-3,8.6
	c-0.9,2.4-1.1,5.1-0.6,7.9c0.4,2.3,3,5.8,6.5,5.9c-1.9-3.6-2.3-6.7,1.5-9c-2.9,4.7,3.3,6.4,4.8,10.3c2.9,7.5-3.7,7.9-5,13.4
	c-1.1,5,5.3,9.2,9.4,1.7c0.1,9.4-10,16.4-17.9,17.1h-0.6c-3.5-0.3-8.3-3-10.6-5C-0.4,60.7-2.1,53.6,3.1,46.7z"/>
</svg>
