<?xml version="1.0" encoding="utf-8"?>
<!-- Generator: Adobe Illustrator 23.0.3, SVG Export Plug-In . SVG Version: 6.00 Build 0)  -->
<svg version="1.1" id="Layer_1" xmlns="http://www.w3.org/2000/svg" xmlns:xlink="http://www.w3.org/1999/xlink" x="0px" y="0px"
	 viewBox="0 0 47.3 85.8" style="enable-background:new 0 0 47.3 85.8;" xml:space="preserve">
<path d="M20.7,85.8c-0.1,0-0.2-0.1-0.3-0.1c-0.2,0-0.3,0-0.3,0.1C9.9,81.6-3.4,68.9,0.8,55.6c3.1,9.1,8.1,11.1,11.1,11.6
	c3.9-10.5,1.2-21.9-8.4-24.8c11.3,1.1,15.4,6.4,16.8,12c3.4-4,6-12.7,2.2-20.3C19,27,13,21.9,10.4,14.1C9.1,10.1,9.6,3.9,13.7,0
	C11,10.6,26.4,19.6,34.5,26.8C46.4,37.4,51.1,50,43.8,64.7C39.8,72.8,31.2,82.2,20.7,85.8z"/>
</svg>
