<?xml version="1.0" encoding="utf-8"?>
<!-- Generator: Adobe Illustrator 23.0.3, SVG Export Plug-In . SVG Version: 6.00 Build 0)  -->
<svg version="1.1" id="Layer_1" xmlns="http://www.w3.org/2000/svg" xmlns:xlink="http://www.w3.org/1999/xlink" x="0px" y="0px"
	 viewBox="0 0 53.1 80.5" style="enable-background:new 0 0 53.1 80.5;" xml:space="preserve">
<g>
	<path d="M46.4,69.3c5.7-6.5,7.5-13.9,6.5-20.1c-1.2-7.4-7.2-14.5-11.5-20.3c-3.3-4.5-7.5-10.8-9.3-16.1C30.5,8.4,30.3,3.6,33.3,0
		c-4,2-8.8,5.3-11.9,7.9c-9.2,7.5-19,22.9-11.8,34.9c-3.3-2.3-4.1-6.4-3.9-9.7c-3.3,3.3-5.1,8.3-5.6,12.4
		c-1,14.4,9.9,31.2,25.7,35.1C25.8,80.5,36.9,80.2,46.4,69.3z"/>
</g>
</svg>
