<?xml version="1.0" encoding="utf-8"?>
<!-- Generator: Adobe Illustrator 23.0.3, SVG Export Plug-In . SVG Version: 6.00 Build 0)  -->
<svg version="1.1" id="Layer_1" xmlns="http://www.w3.org/2000/svg" xmlns:xlink="http://www.w3.org/1999/xlink" x="0px" y="0px"
	 viewBox="0 0 51.2 83.7" style="enable-background:new 0 0 51.2 83.7;" xml:space="preserve">
<path d="M48.7,51.8c-2.1-4.5-5.3-8.4-6.7-13.2c-1.7-6.2,1.8-10.6,6.5-12.4c-2.4,0.3-4.5,0.7-6.7,1.5c-8.8,3.4-13.9,13.2-7.9,22.3
	c-3.4-5-3.3-8.5-2.6-12.6c1.2-7.9,6.3-13.4,4.3-22.3C33.7,6.8,25.9,1.4,18,0c4.6,2.9,7.2,10.5,5.1,17.3c-2.1,7.2-7.2,13.2-11.8,18.9
	C2.5,46.9-5.2,60,4.6,73C9.9,80,20,83.9,26.1,83.7c5.9-0.2,11.6-2.5,15.7-5.6C51.4,70.7,53.5,61.5,48.7,51.8z"/>
</svg>
