<?xml version="1.0" encoding="utf-8"?>
<!-- Generator: Adobe Illustrator 23.0.3, SVG Export Plug-In . SVG Version: 6.00 Build 0)  -->
<svg version="1.1" id="Layer_1" xmlns="http://www.w3.org/2000/svg" xmlns:xlink="http://www.w3.org/1999/xlink" x="0px" y="0px"
	 viewBox="0 0 49.1 87.3" style="enable-background:new 0 0 49.1 87.3;" xml:space="preserve">
<g>
	<path d="M24,87.3c-6.3-2.8-14.9-6.8-18.7-11.4c-7.2-8.6-7.7-22.6,2.3-28.7c-4.5,3.6-3.7,11.6,1.1,13.1c4.3,1.4,6.5-3.4,4.7-7.4
		c-2.1-4.7-6.1-8.9-6.1-14.3C6.9,34,9.8,29,13,26.5c-1.6,8.2,3.6,14.3,8.2,17.5h0.4c-3.2-2.5-5.4-6.5-6.4-10.4
		C11.6,20.6,20.5,4.7,31.2,0C26,5,28,13.6,29.8,19.3c4.7,13.6,19.3,21.3,19.3,38.8C49.1,78.9,24,87.3,24,87.3z"/>
</g>
</svg>
