<?xml version="1.0" encoding="utf-8"?>
<!-- Generator: Adobe Illustrator 23.0.3, SVG Export Plug-In . SVG Version: 6.00 Build 0)  -->
<svg version="1.1" id="Layer_1" xmlns="http://www.w3.org/2000/svg" xmlns:xlink="http://www.w3.org/1999/xlink" x="0px" y="0px"
	 viewBox="0 0 44.7 80.4" style="enable-background:new 0 0 44.7 80.4;" xml:space="preserve">
<path d="M6.6,73.4C2.4,68.7,0.3,63.2,0,56.9c-0.2-7.3,2.9-14.5,7.1-20.4c4.1-5.9,8.1-10,11.5-16.9c2.8-5.7,2.8-13.8-1.8-19.6
	c5.7,1.2,13.5,7.4,14.9,12.3c0.8,2.9,0.9,7.7,0.3,10.8c-0.5,2.7-1.3,5.5-1,8.9c0.2,3.1,5.4,7.7,10.1,13.9c5,6.5,4.6,16.7,0.1,23.6
	C33.6,81.3,16.7,85,6.6,73.4z"/>
</svg>
