<?xml version="1.0" encoding="utf-8"?>
<!-- Generator: Adobe Illustrator 23.0.3, SVG Export Plug-In . SVG Version: 6.00 Build 0)  -->
<svg version="1.1" id="Layer_1" xmlns="http://www.w3.org/2000/svg" xmlns:xlink="http://www.w3.org/1999/xlink" x="0px" y="0px"
	 viewBox="0 0 56.3 85.2" style="enable-background:new 0 0 56.3 85.2;" xml:space="preserve">
<path d="M29.8,85.2c6.8,0.4,13.7-2.8,16-4.2c11-6.8,14.1-20.2,5.6-29c2.8,7.3-2.1,14.7-8.9,17.9h-0.2c3.3-2.8,6.8-6.6,7.8-10.6
	c1.9-7.9-1.4-11.5-6.3-18.1C39.8,35.9,32.5,28,40,24.2c-7.3,1.2-10,11.4-4.8,16.1c-3.5-2.4-4.3-5.6-3.6-9.4c1.2-5.2,4.7-8,5.1-13.1
	c0.5-6.3-11-9-5.1-17.8C21.4,5.2,13.6,18.1,18.8,29.6c2.8,5.9,9,9.5,13.2,14.5c3.6,4.3,2.6,13.2-4.7,13.3c-2.2,0-5.4-2.1-5.6-4.9
	c-0.5-3.3,1.5-7.2,5.5-7.9c-12.5,0.1-17.3,17.7-7.4,22.2C13.9,65,12.1,57,14,51.3c1.9-5.9,5.6-13.4,1.6-19.5
	c-1.6-2.6-5.9-5.2-9.8-4.6c9.8,2.4,1.9,15.7-2.6,22.3C-2.8,58.3,0,71.4,8.2,77.9c3.6,2.9,8.9,7.6,20.3,7.3H29.8z"/>
</svg>
