<?xml version="1.0" encoding="utf-8"?>
<!-- Generator: Adobe Illustrator 23.0.3, SVG Export Plug-In . SVG Version: 6.00 Build 0)  -->
<svg version="1.1" id="Layer_1" xmlns="http://www.w3.org/2000/svg" xmlns:xlink="http://www.w3.org/1999/xlink" x="0px" y="0px"
	 viewBox="0 0 53.2 101.7" style="enable-background:new 0 0 53.2 101.7;" xml:space="preserve">
<path d="M25.7,101.7C10.2,98.4-1.9,86.4,0.3,71.1c0.7-4.4,2.7-7.2,5.6-10.3c-4.4,5.7-0.6,14.6,4.6,16.6C4.1,72.8,5.3,65,8.3,59.5
	c3.3-6,4.7-11.6,2.6-17c-1-2.6-4.2-5.9-7.9-6.6c3.8-1.1,8.9-0.6,12.4,1.4c4.1,2.4,7.3,6.2,8.2,11c0.3-8.2-6.8-12.5-9.5-19.3
	c-2.8-6.8-2.1-13.6,2-19.7C18.5,5.9,22.3,1.8,26,0c-2.6,4-6.9,11.1-1.6,22.1c3.9,8.2,9.5,12.5,16,19.3c5.2,5.4,10,11.4,11.8,19.5
	c1.6,6.8,1.6,14.7-1.9,22.7c-4.6,10.5-16,17.6-24.1,18.1H25.7z"/>
</svg>
