<?xml version="1.0" encoding="utf-8"?>
<!-- Generator: Adobe Illustrator 23.0.3, SVG Export Plug-In . SVG Version: 6.00 Build 0)  -->
<svg version="1.1" id="Layer_1" xmlns="http://www.w3.org/2000/svg" xmlns:xlink="http://www.w3.org/1999/xlink" x="0px" y="0px"
	 viewBox="0 0 54.9 98.5" style="enable-background:new 0 0 54.9 98.5;" xml:space="preserve">
<path d="M46.3,43c1.7,4.7-1.5,16.3-8.7,19.9c3.3-6.6-2.5-17.6-6.8-22.6c-2.9-3.7-6.8-7.2-9.1-11.4c-2.5-4.1-3.3-9.3-2.7-14
	c0.5-3.6,2.2-8.7,6.4-14.9C15.3,6,3.9,17.5,1,28.9c-1.5,5.6-1.4,11.4,0.9,17.3c2.8,7.1,10.3,12.3,15,17.9c5.4,6.3,4.4,13.2,0,18.2
	C11.1,82.8,3.6,78.1,1,70c0.6,20.3,18.6,28.3,26.1,28.5h1.4c21.3-4.4,30.2-25.6,24.9-43.2C52.1,50.7,49.7,46.6,46.3,43z"/>
</svg>
