<?xml version="1.0" encoding="utf-8"?>
<!-- Generator: Adobe Illustrator 25.1.0, SVG Export Plug-In . SVG Version: 6.00 Build 0)  -->
<svg version="1.1" id="Layer_1" xmlns="http://www.w3.org/2000/svg" xmlns:xlink="http://www.w3.org/1999/xlink" x="0px" y="0px"
	 viewBox="0 0 792 612" style="enable-background:new 0 0 792 612;" xml:space="preserve">
<style type="text/css">
	.st0{fill-rule:evenodd;clip-rule:evenodd;fill:#010101;}
	.st1{fill:#010101;}
</style>
<path class="st0" d="M400.72,93.96c6.19,6.19,29.58,3.44,49.53,64.67c19.95,61.23-28.55,122.8-23.39,159.95
	c5.16,37.15,42.04,45.45,53.74,25.85c11.7-19.61-10.4-20.69-3.86-50.27c6.54-29.58,34.05-47.81,27.86-42.65
	c-6.19,5.16-17.54,27.17-3.44,50.91c14.1,23.74,50.57,108.01,31.99,158.23c-9.55,25.81-29.28,44.72-56.94,56.53
	c4.4-14.43,9.37-38.11-14.41-77.8c-7.32,7.76,9.95,35.55-13.06,42.57c-9.93,3.03-20.95,1.88-30.42-2.78
	c-13.94-6.86-22.92-20-26.37-34.93c-4.34-18.81,3.27-40.97,7.48-59.4c2.69-11.76,5-24.68,3.15-36.85
	c-5.87,13.87-14.2,25.54-22.98,37.65c-11.03,15.23-21.85,28.25-14.77,47.77c4.17,11.5,3.96,24.54-3.8,34.55
	c-25.47,22.07-36.96,2.55-39.69-12.75c-4.58,40.63-3.11,49.33,1.51,62.35l0.18,0.49c-39.48-19.77-57.99-57.6-66.44-90.42
	c-11.7-45.41,15.14-60.89,20.98-97.35c5.85-36.46-20.98-70.17-20.98-70.17c61.81,29.71,31.42,72.59,55.04,75.68
	c15.46,2.02,20.25-9.99,16.51-24.08c-17.09-64.45,41.32-90.16,68.45-141.72C417.24,130.77,400.72,93.96,400.72,93.96z"/>
</svg>
