<?xml version="1.0" encoding="utf-8"?>
<!-- Generator: Adobe Illustrator 25.1.0, SVG Export Plug-In . SVG Version: 6.00 Build 0)  -->
<svg version="1.1" id="Layer_1" xmlns="http://www.w3.org/2000/svg" xmlns:xlink="http://www.w3.org/1999/xlink" x="0px" y="0px"
	 viewBox="0 0 792 612" style="enable-background:new 0 0 792 612;" xml:space="preserve">
<style type="text/css">
	.st0{fill-rule:evenodd;clip-rule:evenodd;fill:#010101;}
	.st1{fill:#010101;}
</style>
<path class="st0" d="M289.88,483.79c-16.59-24-22.68-53.42-15.49-81.75c10.43-41.06,31.74-75.45,9.15-117.28
	c40.4,26.59,48.41,65.65,47.85,48.45c-2.2-66.93,100.97-73.3,48.23-245.89c46.23,37.02,96.56,97.31,88.39,184.21
	c-2.61,27.75-28.97,78.74-1.4,105.49c-1.07-21.38,16.28-42.08,37.52-44.75c-10.62,8.77-16.06,23.4-13.75,36.98
	c3.11,18.28,17.81,30.77,25.17,47.01c10.55,23.27,3.35,51.18-11.32,71.02c-12.66,17.13-31.04,29.48-50.82,37.38
	c2.87-6.3,3.57-13.56,1.37-21.76c-6.42-23.93-2.79-24.22,2.7-46.86c-0.91,3.77-8.89,9.15-11.86,12.15
	c-9.31,9.36-28.91,3.28-25.39-7.69c8.13-25.39-46.75-60.59-35.33-106.23c-14.44,21.8-25.37,43.49-17.43,65.12
	c6.62,18.06,5.77,56.71-17.08,61.73c-12.97,2.85-23.41-21.14-23.41-21.14c-11.41,19.98-14.47,36.53-11.84,49.87
	c-5.65-4.23-10.96-8.99-15.87-14.3C295.88,491.86,292.74,487.92,289.88,483.79z"/>
</svg>
