<?xml version="1.0" encoding="utf-8"?>
<!-- Generator: Adobe Illustrator 25.1.0, SVG Export Plug-In . SVG Version: 6.00 Build 0)  -->
<svg version="1.1" id="Layer_1" xmlns="http://www.w3.org/2000/svg" xmlns:xlink="http://www.w3.org/1999/xlink" x="0px" y="0px"
	 viewBox="0 0 792 612" style="enable-background:new 0 0 792 612;" xml:space="preserve">
<style type="text/css">
	.st0{fill-rule:evenodd;clip-rule:evenodd;fill:#010101;}
	.st1{fill:#010101;}
</style>
<g>
	<path class="st1" d="M775.64,379.73c-2.89-19.03-21.7-31.8-21.7-31.8c14.43,24.9-4.06,30.49-4.06,30.49
		c14.46-20.85-14.19-25.54-15.77-35.18c-1.58-9.64,2.63-3.13,11.83-5.73s3.68-20.07,3.68-20.07c0,4.43-2.89,9.12-18.4,3.13
		c-15.51-5.99-28.65,1.3-22.34,19.03c6.31,17.72,0.53,35.44-13.4,34.4c-13.93-1.04-9.46-29.45-9.46-29.45s-13.15,8.6-23.92,5.99
		c-10.78-2.61-2.89-24.76,9.73-29.97c12.62-5.21,13.67,11.99,13.67,11.99c3.42-29.19-9.99-46.65-30.23-57.34
		c-20.24-10.69-13.93-18.5-13.93-18.5c-21.29,7.3-13.14,28.41-5.78,43.26c7.36,14.86-15.24,34.66-15.24,34.66
		c-8.67-87.31-69.65-88.09-93.57-100.08c-23.92-11.99-16.56-26.58-16.56-26.58c-33.64,55.51,32.85,59.68,18.4,72.71
		c-14.46,13.03-42.84-16.16-42.84-16.16c-0.79,34.14-34.17-14.33-26.28-19.03c7.89-4.69,17.35,11.21,17.35,11.21
		c4.99-35.44-7.36-45.87-31.01-60.73c-23.66-14.86-21.29-27.89-21.29-27.89c-1.84,14.07-10.51,13.03-22.6,29.97
		c-12.09,16.94,1.31,33.1,15.51,47.17c14.19,14.07,2.37,35.45-26.28,31.54c-28.65-3.91-27.86,8.08-27.86,8.08
		c0.53-57.08-80.43-51.86-85.42-56.82c-4.99-4.95,3.68-8.34,3.68-8.34s-30.49,4.43-22.87,19.55c7.62,15.12,39.16,20.85,40.21,40.92
		c1.05,20.07-25.49,24.76-25.49,24.76c11.04-13.81,3.94-30.49-14.19-34.4c-18.14-3.91-31.54-13.55-31.54-13.55
		s16.56,16.94,8.67,28.41c-7.89,11.47-14.98,1.04-41.27,1.3c-26.28,0.26-24.71,16.94-24.71,16.94
		c-26.55,12.25,8.94,34.66-4.21,43.52c-13.14,8.86-23.39-3.65-23.39-3.65c-8.41,8.6-25.49-1.3-17.08-9.9
		c8.41-8.6,16.82-0.52,16.82-0.52c3.42-22.41-27.33-41.44-47.31-37.01c-19.98,4.43-18.92-4.95-18.92-4.95
		c-4.73,17.72,17.87,18.5,19.19,31.27c1.31,12.77-13.93,9.64-26.28,16.16c-12.35,6.52-0.53,14.59,21.03,12.25
		c21.55-2.35,17.08,8.6,17.08,8.6c-4.73-4.69-6.57-0.78-19.19,3.91c-12.62,4.69-39.16,8.08-48.62-5.99
		c-9.46-14.07,14.46-18.76,14.46-18.76c-37.5,2.26-53.97,26.58-16.67,50.91c37.3,24.33,62.4,12.68,62.4,12.68
		c14.72,7.82,89.89,18.76,135.1,7.3c45.21-11.47,36.27,23.46,147.19,32.32c110.92,8.86,129.31-12.25,149.03-20.33
		c19.71-8.08,27.07,1.04,64.39,4.43c37.32,3.39,55.72-18.24,55.72-18.24s31.01,16.42,57.3,11.47c26.28-4.95,18.66-25.28,27.86-22.15
		C745.42,400.06,778.53,398.76,775.64,379.73z"/>
	<path class="st1" d="M362.64,259.15c0,0,16.82-43.09-51.87-33.36C310.78,225.79,358.44,229.96,362.64,259.15z"/>
	<path class="st1" d="M205.64,282.09c0,0-42.05-24.03-43.46,13.35C162.19,295.44,172.7,273.05,205.64,282.09z"/>
</g>
</svg>
