<?xml version="1.0" encoding="utf-8"?>
<!-- Generator: Adobe Illustrator 25.1.0, SVG Export Plug-In . SVG Version: 6.00 Build 0)  -->
<svg version="1.1" id="Layer_1" xmlns="http://www.w3.org/2000/svg" xmlns:xlink="http://www.w3.org/1999/xlink" x="0px" y="0px"
	 viewBox="0 0 792 612" style="enable-background:new 0 0 792 612;" xml:space="preserve">
<style type="text/css">
	.st0{fill-rule:evenodd;clip-rule:evenodd;fill:#010101;}
	.st1{fill:#010101;}
</style>
<g>
	<path class="st1" d="M400.49,322.33c9.34-42.25,43.97-50.58,36.13-93.81c-7.85-43.22-49.86-50.9-49.86-50.9
		s37.92,62.83,0.88,102.19c-37.04,39.37-83.04,87.14-21.83,134.41c70.87,54.73,50.04,124.2,50.04,124.2s75.23-22.62,76.48-97.83
		C493.58,365.38,391.15,364.58,400.49,322.33z"/>
	<path class="st1" d="M475.23,320.24c5.99-29.84,8.89-69.47-19.98-92.66c0,0,20.5,48.25-12.71,78.54
		c-33.21,30.3-7.91,40.35,18.34,57.08c26.25,16.73,59.4,70.01,38.13,100.31c0,0,57.56-26.94,35.63-73.28
		C512.7,343.91,469.24,350.08,475.23,320.24z"/>
	<path class="st1" d="M332.96,279.06c-75.36,32.93-36.02,88.36-11.45,117.27c0,0-31.1-56.66,5.45-87.43
		c36.56-30.77,63.79-43.17,28.48-87.6C355.44,221.3,379.11,258.89,332.96,279.06z"/>
	<path class="st1" d="M306.91,407.3c-43.34-7.74-38.52-53.64-38.52-53.64c-16.65,24.8-29.66,63.11-28.47,75.92
		c3.56,38.45,46.19,26.3,55.01,63.25c11.75,49.27,92.82,71.46,99.45,26.48C401,474.33,376.72,419.77,306.91,407.3z"/>
	<path class="st1" d="M303.33,253.48c0,0,40.9-3.85,39.45-31.04c-1.44-27.18-49.2-22.13-31.75-76.74c0,0-34.04,38.61-19.85,51.67
		C305.07,210.15,316.08,240.85,303.33,253.48z"/>
	<path class="st1" d="M395.16,111.5c19.58,17.5,41.51,46.71,33.84,60.67c0,0,39.32-22.5,29.76-42.25
		c-9.56-19.76-61.82-16.82-47.42-61.6C411.33,68.31,375.57,93.99,395.16,111.5z"/>
	<path class="st1" d="M527.61,332.35c0,0,32.48-23.81,22.73-46.93c-9.75-23.13-29.79-18.62-27.93-45.78c0,0-20.78,21.46-5.6,51.04
		C532,320.27,527.61,332.35,527.61,332.35z"/>
</g>
</svg>
