<?xml version="1.0" encoding="utf-8"?>
<!-- Generator: Adobe Illustrator 25.1.0, SVG Export Plug-In . SVG Version: 6.00 Build 0)  -->
<svg version="1.1" id="Layer_1" xmlns="http://www.w3.org/2000/svg" xmlns:xlink="http://www.w3.org/1999/xlink" x="0px" y="0px"
	 viewBox="0 0 792 612" style="enable-background:new 0 0 792 612;" xml:space="preserve">
<style type="text/css">
	.st0{fill-rule:evenodd;clip-rule:evenodd;fill:#010101;}
	.st1{fill:#010101;}
</style>
<g>
	<path class="st1" d="M495.08,343.61c-11.82-44.63-36.03-55.3-51.29-72.64c-15.26-17.33-6.26-44.97-6.26-44.97
		c-23.63,48.7-11.19,76.13-4.72,87.98c6.47,11.86,1.62,30.97-15.86,30.35c-17.49-0.63-17.05-37.71-16.74-60.5
		c0.31-22.78,2.96-22.54,10.04-30.03c7.08-7.48,12.81-17.08,11.01-39.31c-1.8-22.23-15.88-25.8-22.9-40.57
		c-7.03-14.77-13.81-31.39-8.85-66.4c4.96-35.01-2.68-57.98-2.68-57.98c2.92,28.58-4.05,46.92-15.27,65.04
		c-11.21,18.12-8.76,25.78-2.76,43.2c5.99,17.42-7.66,30-17.86,43.08c-10.2,13.08-5.81,28.93,0.42,43.96
		c6.24,15.04-12.23,22.63-14.41,44.37c-2.17,21.74,10.16,36.98,7.62,48.66c-2.54,11.68-50.17,70.94-62.34,100.19
		c-12.17,29.25-2.55,92.99,54.89,116.28c57.44,23.29,79.88-11.1,79.88-11.1c42.01,16.28,49.21-60.86,48.21-82.04
		c-1-21.18-4.18-21.68,7.57-39.01C484.55,404.87,506.9,388.23,495.08,343.61z"/>
	<path class="st1" d="M447.22,167.67c0,0,7.01,14.06-5.53,31.66C441.69,199.33,472.29,185.61,447.22,167.67z"/>
	<path class="st1" d="M335.91,326.95c-18.38-38.49-0.57-59.33-0.57-59.33C295.4,301.39,335.91,326.95,335.91,326.95z"/>
	<path class="st1" d="M504.7,363.6c-0.44-0.78-0.77-1.18-0.77-1.18C504.21,362.82,504.43,363.2,504.7,363.6z"/>
	<path class="st1" d="M504.7,363.6c2.95,5.17,11.44,27.46-30.06,67.44C474.64,431.04,538.06,413.2,504.7,363.6z"/>
</g>
</svg>
