<?xml version="1.0" encoding="utf-8"?>
<!-- Generator: Adobe Illustrator 25.1.0, SVG Export Plug-In . SVG Version: 6.00 Build 0)  -->
<svg version="1.1" id="Layer_1" xmlns="http://www.w3.org/2000/svg" xmlns:xlink="http://www.w3.org/1999/xlink" x="0px" y="0px"
	 viewBox="0 0 792 612" style="enable-background:new 0 0 792 612;" xml:space="preserve">
<style type="text/css">
	.st0{fill-rule:evenodd;clip-rule:evenodd;fill:#010101;}
	.st1{fill:#010101;}
</style>
<g>
	<path class="st1" d="M626.81,387.3c0-21.19,42.38-37.08,32.67-57.39c0,0-9.71,19.42-30.9,20.31c-21.19,0.88,2.65-17.66,12.36-27.37
		c9.71-9.71-0.88-36.2-9.71-38.85c0,0,6.18,16.77-1.77,24.72c-7.95,7.95-28.25,21.19-28.25,28.25c0,7.06-15.01-9.71-6.18-17.66
		c8.83-7.95,11.48-22.07-1.77-34.43c-13.24-12.36-12.36-19.42-5.3-30.9c0,0-27.37,11.48-25.6,26.49
		c1.77,15.01,25.6,39.73,15.89,68.86c-9.71,29.14-35.32,45.03-38.85,30.02c-3.53-15.01,25.6-27.37,21.19-47.68
		c-4.41-20.31-26.98-26.26-28.25-50.32c-0.88-16.77,11.48-28.25,11.48-28.25s-31.78,10.6-25.6,33.55
		c6.18,22.96,24.72,44.15,15.01,58.27c-9.71,14.13-33.55,21.19-29.14,39.73c4.41,18.54-44.14-12.36-29.13-36.2
		c15.01-23.84,29.13-38.85,22.95-54.74c0,0-3.53,22.95-22.07,28.25c-18.54,5.3-20.31-15.89-2.65-34.43
		c17.66-18.54-6.18-52.09-6.18-52.09s6.18,15.89-7.95,24.72c-14.13,8.83-44.14,27.37-39.73,54.74
		c4.41,27.37,33.55,59.15,15.01,71.51c-18.54,12.36-46.79-14.13-35.32-37.97c11.48-23.84,10.59-32.67,10.59-32.67
		s-16.77,30.9-30.02,34.43c-13.24,3.53-8.83-17.66,5.3-36.2c14.13-18.54,11.48-50.32-8.83-62.69
		c-20.31-12.36-11.48-32.67-11.48-32.67s-22.07,24.72-17.66,35.32c4.41,10.59,15.01,46.79,3.53,54.74
		c-11.48,7.95-17.66-6.18-12.36-19.42c5.3-13.24-3.53-23.84-3.53-23.84s0,21.19-9.71,22.96c-9.71,1.77-18.54,20.31-8.83,27.37
		c9.71,7.06,36.2,35.32,20.31,44.14c-15.89,8.83-41.5,26.49-30.9,44.14c10.6,17.66-13.24,29.14-17.66,13.24
		c-4.41-15.89-7.06-25.6,7.06-44.14c14.13-18.54,7.95-30.02,7.95-30.02s-3.53,18.54-16.77,23.84c-13.24,5.3-8.83,29.14-20.31,27.37
		c-11.48-1.77-5.3-29.13,9.71-44.14c15.01-15.01,9.71-36.2-2.65-45.03c-12.36-8.83-7.95-35.32-7.95-35.32s-17.66,30.9-13.24,38.85
		c4.41,7.95,0.88,42.38-9.71,43.26c-10.59,0.88-38.85-47.68-12.36-80.34c26.49-32.67-7.06-50.32-7.06-50.32s10.59,23.84-6.18,35.32
		c-16.78,11.48-48.56,29.13-50.32,58.27c-1.77,29.14,44.14,58.27,31.78,73.28c-12.36,15.01-43.26,0-37.96-19.42
		c5.3-19.42-21.19-33.55-21.19-33.55s16.77,19.42,4.41,33.55c-12.36,14.13-22.07,65.33,7.95,82.11
		c30.02,16.78,52.09,17.66,114.77,17.66c62.68,0,335.49,0,335.49,0s45.03-6.18,50.33-36.2C656.83,402.31,626.81,408.49,626.81,387.3
		z"/>
	<path class="st1" d="M260.08,248.8c0,0,23.07-11.03,16.05-28.09c-7.02-17.05-23.07-21.06-16.05-33.1c0,0-17.05,2.01-7.02,17.05
		C263.09,219.71,267.1,241.78,260.08,248.8z"/>
	<path class="st1" d="M507.9,208.71c-2.93-17.98-24.45-19.09-24.45-19.09s13.27,8.74,9.34,22.07
		c-3.93,13.33-14.46,21.44-14.46,21.44S510.83,226.69,507.9,208.71z"/>
	<path class="st1" d="M441.64,182.6c19.06,14.04,22.07,31.09,17.05,38.12c0,0,15.05-9.03,11.03-24.07
		c-4.01-15.05-27.08-33.1-15.05-53.16C454.68,143.48,422.58,168.55,441.64,182.6z"/>
	<path class="st1" d="M597.12,248.8c11.04,9.03,23.07,19.06,16.05,28.09c0,0,21.07-6.02,16.05-22.07
		c-5.02-16.05-27.09-4.01-23.07-31.09C606.15,223.73,586.08,239.77,597.12,248.8z"/>
	<path class="st1" d="M393.49,244.79c0,0,16.05-3.01,9.03-15.05c-7.02-12.04-23.07-16.05-20.06-36.11c0,0-12.04,17.05-3.01,28.09
		C388.48,232.75,394.49,235.76,393.49,244.79z"/>
</g>
</svg>
