<?xml version="1.0" encoding="utf-8"?>
<!-- Generator: Adobe Illustrator 25.1.0, SVG Export Plug-In . SVG Version: 6.00 Build 0)  -->
<svg version="1.1" id="Layer_1" xmlns="http://www.w3.org/2000/svg" xmlns:xlink="http://www.w3.org/1999/xlink" x="0px" y="0px"
	 viewBox="0 0 792 612" style="enable-background:new 0 0 792 612;" xml:space="preserve">
<style type="text/css">
	.st0{fill-rule:evenodd;clip-rule:evenodd;fill:#010101;}
	.st1{fill:#010101;}
</style>
<g>
	<path class="st1" d="M443.32,197.25c0,0,19.96,9.67,14.66,22.35C457.98,219.6,476.31,190.33,443.32,197.25z"/>
	<path class="st1" d="M402.64,123.12c22.36,17.92,30.5,10.18,28.87,27.29c0,0,14.66-20.03-15.48-32.01c-30.14-11.98,0-38.45,0-38.45
		S380.28,105.2,402.64,123.12z"/>
	<path class="st1" d="M549.22,451c-19.96-15.88-41.95-4.07-36.25-31.77c5.7-27.7,26.07-68.83,26.07-68.83
		c-40.73,34.21-79.83-8.96-88.79-18.74c-8.96-9.78-12.22-12.63,25.66-18.33c37.88-5.7,59.47,13.44,59.47,13.44
		c-24.85-59.47-44.4-59.06-66.39-58.65c-21.99,0.41-41.95-1.22-50.51-17.51c-8.55-16.29-10.59-18.33,15.54-22.81
		c26.13-4.48,15.82-15.88-0.07-21.59c-15.88-5.7-25.66-19.55-6.92-30.96c18.74-11.4,40.73-17.11,27.29-38.29
		c-8.75-13.79-22.81-16.29-22.81-16.29c34.21,36.25-1.22,43.99-20.36,46.84c-19.14,2.85-40.73,6.52-43.99,17.51
		c-3.26,11,6.11,14.26,6.11,14.26c-56.61,20.77-51.73,51.73-32.99,62.32c18.74,10.59,39.51,23.62,37.06,31.77
		c-2.44,8.15-11.81,6.11-27.7,9.78c-15.88,3.67-13.85,29.73-2.85,35.44c11,5.7,16.29,18.33,4.07,15.07
		c-12.22-3.26-38.69-17.11-66.8-3.67c-28.1,13.44-79.42,36.66-50.91,98.57c28.51,61.91,100.2,83.09,167.81,83.5
		c67.61,0.41,141.33-42.77,156.81-50.1C573.25,474.62,569.18,466.88,549.22,451z"/>
</g>
</svg>
