<?xml version="1.0" encoding="utf-8"?>
<!-- Generator: Adobe Illustrator 25.1.0, SVG Export Plug-In . SVG Version: 6.00 Build 0)  -->
<svg version="1.1" id="Layer_1" xmlns="http://www.w3.org/2000/svg" xmlns:xlink="http://www.w3.org/1999/xlink" x="0px" y="0px"
	 viewBox="0 0 792 612" style="enable-background:new 0 0 792 612;" xml:space="preserve">
<style type="text/css">
	.st0{fill-rule:evenodd;clip-rule:evenodd;fill:#010101;}
	.st1{fill:#010101;}
</style>
<g>
	<path class="st1" d="M535.79,434.89c-27.77-35.71-41.46-45.86-22.29-73.75c0,0-47.6,22.87-34.96,48.32
		c12.65,25.45,9.96,43.71-11.52,42.24c-21.48-1.47-37.66-59.44-8.25-89.7c29.4-30.26-7.48-58.91-7.48-58.91s6.61,29.65-8.76,43.97
		c-15.36,14.32-31.88,45.46-26.89,56.56c5,11.1-36.67-31.71-22.11-55.3c14.56-23.59,40.3-63.32,28.59-102.54
		c-11.71-39.22-49.22-58.69-35.78-86.97c0,0-35.76,39.05-16.06,66.52c19.7,27.47-6.7,34.89-22.48,55.32
		c-15.78,20.43-24.41,41.36-10.92,54.57c13.48,13.22,40.18,85.73,10.59,97.54c-29.58,11.81-46.42-15.47-25.71-44.79
		c20.71-29.32-13.52-54.71-28.65-64.96c0,0,30.22,42.02,2.76,64.73c-27.45,22.71-67.98,84.06-32.84,117.2
		c35.14,33.14,129.69,30.95,176.8,28.71C501.9,530.71,563.56,470.6,535.79,434.89z"/>
	<path class="st1" d="M310.11,263.23c0,0,26.04-21.58,21.82-35.3c-4.22-13.72-23.55-27.85-8.54-48.39c0,0-28.79,7.96-16.18,32.32
		C319.82,236.21,310.11,263.23,310.11,263.23z"/>
	<path class="st1" d="M448.19,184.87c0,0-2.87-27.27-18.66-54.54c-15.79-27.27-17.22-38.76-8.61-53.11c0,0-33.01,30.14-5.74,61.72
		C442.45,170.52,448.19,184.87,448.19,184.87z"/>
	<path class="st1" d="M464.54,197.79c0,0,15.75,47.24-11.81,68.9C452.73,266.69,511.78,252.91,464.54,197.79z"/>
</g>
</svg>
