<?xml version="1.0" encoding="utf-8"?>
<!-- Generator: Adobe Illustrator 25.1.0, SVG Export Plug-In . SVG Version: 6.00 Build 0)  -->
<svg version="1.1" id="Layer_1" xmlns="http://www.w3.org/2000/svg" xmlns:xlink="http://www.w3.org/1999/xlink" x="0px" y="0px"
	 viewBox="0 0 792 612" style="enable-background:new 0 0 792 612;" xml:space="preserve">
<style type="text/css">
	.st0{fill-rule:evenodd;clip-rule:evenodd;fill:#010101;}
	.st1{fill:#010101;}
</style>
<g>
	<path class="st1" d="M519.62,391.59c-2.38-16.04-11.88-27.57-11.88-27.57c16.2-5.28-4.77-15.17-6.21-22.84
		c-1.44-7.68,7.32-2.63,5.59-22.79c-1.73-20.15-13.57-24.82-13.57-24.82c4.87,6.35,5.5,21.31-2.16,28.56
		c-7.66,7.25-17.89,1.71-15.39,12.63c2.5,10.91,13.96,12,15.6,22.41c1.64,10.41-11.21,25.92-11.21,25.92
		c15.06-33.99-13.98-32-18.16-40.16c-4.18-8.16-0.5-16.4,9.96-30.86c10.46-14.46,22.66-24.83,17.33-46.66
		c-5.34-21.83-64.59-33.22-70.81-41.02c-6.23-7.8,5.27-20.56,2.39-35.92c-2.88-15.35-31.15-40.04-42.94-57.02
		c-10.21-14.71-2.89-20.09-0.75-21.26c-16.44,6.94-2.7,30.29,2.02,46.59c4.77,16.49-10.16,36.89-21.04,51.61
		c-10.88,14.72-12.49,34.09,5.03,43.54c17.52,9.45,30.04,17.79,33.26,33.27c3.23,15.48-21.11,30.58-21.11,30.58
		s29.09,12.28,28.87,29.08c-0.22,16.8-23.56,29.33-23.56,29.33s12.36-20.76,2.92-29.13c-9.44-8.37-23.77-5.28-29.72-11.12
		c-5.95-5.84-2.7-14.07,4.9-23.25c7.6-9.17,11.2-22.03-0.05-31.66c-11.25-9.63-26.93-1.41-30.73-9.96
		c-3.8-8.55,4.63-11.33,4.63-11.33c-21.28-0.44-34.85,15.46-26.9,28.46c7.94,13,20.57,6.08,23.34,14.26
		c2.77,8.18-17.34,18.63-38.96,45.5c-21.62,26.87-29.42,68.31,6.81,104.2c36.24,35.89,74.48,31.07,74.48,31.07
		s25.6,13.43,56.76,19.62c31.17,6.2,67.92-11.25,82.02-37.54c14.1-26.29,5.87-29.45,3.36-41.57
		C511.25,409.62,522,407.64,519.62,391.59z"/>
	<path class="st1" d="M377.41,110.18c0.19-0.08,0.34-0.19,0.54-0.27C377.95,109.91,377.74,110,377.41,110.18z"/>
	<path class="st1" d="M345.4,243.51c-16.15-26.89,10.8-49.46,10.8-49.46C306.7,218.62,345.4,243.51,345.4,243.51z"/>
	<path class="st1" d="M500.29,273.16c0,0,27.1-33.59-30.91-40.21C469.38,232.95,504.42,248,500.29,273.16z"/>
</g>
</svg>
