<?xml version="1.0" encoding="utf-8"?>
<!-- Generator: Adobe Illustrator 25.1.0, SVG Export Plug-In . SVG Version: 6.00 Build 0)  -->
<svg version="1.1" id="Layer_1" xmlns="http://www.w3.org/2000/svg" xmlns:xlink="http://www.w3.org/1999/xlink" x="0px" y="0px"
	 viewBox="0 0 792 612" style="enable-background:new 0 0 792 612;" xml:space="preserve">
<style type="text/css">
	.st0{fill-rule:evenodd;clip-rule:evenodd;fill:#010101;}
	.st1{fill:#010101;}
</style>
<g>
	<path class="st1" d="M553.68,364.13c-3.88-17.35-14.9-25.61-14.9-25.61c7.86,30.71-6.12,30.2-9.08,27.86
		c-2.96-2.35,1.53-4.18,1.53-4.18c-9.08,2.04-12.75-4.49-7.75-10.41c5-5.92,13.47-5.31,13.16-21.53
		c-0.31-16.22-2.96-18.44-11.39-18.68c-8.44-0.25-12.52-2.47-7.07-17.71c5.44-15.24,11.43-25.85-1.9-45.44
		c-13.33-19.59-41.63-40.27-41.63-40.27c17.96,27.75,14.42,51.43,3.81,56.05c-10.61,4.63-14.97,7.62-9.52,17.69
		c5.44,10.07,10.34,26.12,3.81,29.12c-6.53,2.99-15.24-6.26-14.97-18.13c0.27-11.88-2.72-16.97-2.72-16.97
		c-4.47,14.65-15.78,22.04-22.04,13.06c-6.26-8.98-2.99-40.82,9.52-40.82c12.52,0,8.71,20.68,8.71,20.68
		c18.5-12.24,27.76-45.17,8.44-65.58c-19.32-20.41-47.07-19.05-47.07-19.05c29.58,1.44,13.33,41.63,13.33,41.63
		c1.09-8.71-9.8-33.2-38.37-41.9c-28.57-8.71-54.15,9.52-61.22,0c-7.07-9.52,7.89-19.05,7.89-19.05s-41.56,5.37-39.12,28.64
		c2.45,23.27,55.71,19.18,51.43,32.24c-4.29,13.06-65.48,17.54-70,40c-4.52,22.46,15.1,16.94,34.29,25.31
		c19.18,8.37,10,21.43,10,21.43c-21.22-22.04-56.73,0.2-56.94-32.86c-0.2-33.06,18.37-36.53,18.37-36.53
		c-29.18,4.29-46.33,33.67-44.9,58.57c1.43,24.9,15.51,48.57,28.57,45.92c13.06-2.65,13.88,4.49,12.04,11.43
		c-1.84,6.94-7.96,13.88,10,13.27c17.96-0.61,24.49,12.65,2.86,18.98c-21.63,6.33-35.31-10.2-35.31-23.88
		c0-13.67,7.35-5.31,7.35-5.31c-3.67-13.27-34.9-0.41-14.9,31.22c20,31.63,68.16,19.18,68.16,19.18
		c-33.88,20.61-68.16,2.04-68.16,2.04c26.94,26.94,67.55,18.78,67.55,18.78c11.22,7.55,27.55,4.9,27.55,4.9
		c16.94,16.12,38.16-0.41,38.16-0.41c30.2,18.37,54.08,6.33,58.35-8.16c4.27-14.49,10.02-3.67,17.36-5.92
		c7.35-2.24,8.57-8.57,15.1-7.55c6.53,1.02,10.78,8.54,27.51,13.64c16.73,5.1,34.73-2.41,34.73-2.41
		c-29.59,1.84-38.98-13.06-41.84-19.59c-2.86-6.53,7.14-5.1,12.86,2.45c5.71,7.55-1.43,5.51-1.43,5.51s3.88,8.16,21.43,5.31
		c17.55-2.86,14.29-9.59,12.04-16.33c-2.24-6.73,3.47-7.96,7.96-12.24C549.8,388.21,557.55,381.48,553.68,364.13z"/>
	<path class="st1" d="M398.17,182.84c0,0-4.63-22.86-31.56-7.07C366.6,175.76,384.56,171.95,398.17,182.84z"/>
	<path class="st1" d="M525.24,283.33c0,0,28.84-13.97-1.9-35.73C523.34,247.6,538.57,263.56,525.24,283.33z"/>
	<path class="st1" d="M320.54,215.73c-30.83-0.58-29.04-19.83-29.04-19.83C285.52,227.46,320.54,215.73,320.54,215.73z"/>
</g>
</svg>
