<?xml version="1.0" encoding="utf-8"?>
<!-- Generator: Adobe Illustrator 25.1.0, SVG Export Plug-In . SVG Version: 6.00 Build 0)  -->
<svg version="1.1" id="Layer_1" xmlns="http://www.w3.org/2000/svg" xmlns:xlink="http://www.w3.org/1999/xlink" x="0px" y="0px"
	 viewBox="0 0 792 612" style="enable-background:new 0 0 792 612;" xml:space="preserve">
<style type="text/css">
	.st0{fill-rule:evenodd;clip-rule:evenodd;fill:#010101;}
	.st1{fill:#010101;}
</style>
<g>
	<path class="st1" d="M617.33,423.28c-10.31-42.62-26.19-55.99-54.32-68.53c-28.14-12.54-27.58-14.76-33.99-39.56
		s-14.76-45.41-45.13-54.6c-30.36-9.19-27.02-25.35-27.02-25.35s-6.13,20.61,9.47,28.69c15.6,8.08,23.96,15.32,20.06,38.44
		c-3.9,23.12,11.42,37.33,22.84,57.11c11.42,19.78-6.96,42.34-6.96,42.34c7.52-25.91-11.42-57.11-27.3-66.86
		c-15.88-9.75-12.81-21.73-12.81-21.73c-13.09,27.86-44.29-9.47-29.53-18.94c14.76-9.47,35.1,8.91,35.1,8.91
		c0.84-11.98-3.06-27.86-25.07-37.33c-22.01-9.47-7.52-27.86-33.71-44.57c-26.19-16.71-61.56-0.56-57.39-9.75
		c4.18-9.19,20.34-15.88,16.16-41.79c-4.18-25.91-24.24-38.16-24.24-38.16c5.85,6.96,17.27,33.71-19.22,58.22
		s-32.04,96.11,8.91,98.61c40.95,2.51,41.51,6.41,43.18,18.11c1.67,11.7-28.97,30.92-28.97,30.92c34.26-2.23,43.73,23.12,46.8,46.52
		c3.06,23.4-25.07,53.21-63.79,34.26c-38.72-18.94-33.15-50.14-23.12-56.55c10.03-6.41,12.81-11.98,12.81-11.98
		c-13.09,6.69-19.5,3.06-41.23,9.47c-21.73,6.41-18.66,31.76-18.66,31.76s-25.63-10.31-16.71-32.04
		c8.91-21.73,32.87-8.91,49.03-17.27c16.16-8.36,2.51-31.2-12.26-54.04c-14.76-22.84-8.08-29.25-8.08-29.25
		c-9.75,5.29-18.94,23.4-17.55,41.51c1.39,18.11-11.14,20.06-42.34,37.05c-31.2,16.99-53.48,83.29-1.39,120.34
		c52.09,37.05,82.73,6.41,82.73,6.41c-1.95,20.61,30.64,39.84,55.71,35.66c25.07-4.18,25.07-9.47,36.77-4.18
		c11.7,5.29,6.69,23.12,58.78,15.32c52.09-7.8,74.93-22.64,74.93-22.64s-24.79-0.2-11.7-12.73c13.09-12.54,38.72-17.83,43.18-3.9
		c4.46,13.93-20.06,12.54-20.06,12.54C580.84,499.89,627.64,465.9,617.33,423.28z"/>
	<path class="st1" d="M218.42,324.3c0,0-51.39-11.25-44.57,51.07C173.85,375.37,176.08,339.52,218.42,324.3z"/>
	<path class="st1" d="M426.96,233.3c0,0,1.79-45.41-43.62-27.86C383.34,205.44,410.41,195.41,426.96,233.3z"/>
	<path class="st1" d="M343.22,126.88c19.5,6.13,25.44,29.53,25.44,29.53c5.94-25.63-21.54-32.87-12.07-37.33
		c9.47-4.46-3.48-19.5-3.48-19.5C357.99,113.51,323.72,120.75,343.22,126.88z"/>
	<path class="st1" d="M534.88,317.42c10.31-46.24-29.53-52.37-29.53-52.37C529.31,278.42,534.88,317.42,534.88,317.42z"/>
	<path class="st1" d="M278.59,233.3c0,0,17.2-25.42-7.24-31.89C271.35,201.41,284.72,212.12,278.59,233.3z"/>
</g>
</svg>
