<?xml version="1.0" encoding="utf-8"?>
<!-- Generator: Adobe Illustrator 25.1.0, SVG Export Plug-In . SVG Version: 6.00 Build 0)  -->
<svg version="1.1" id="Layer_1" xmlns="http://www.w3.org/2000/svg" xmlns:xlink="http://www.w3.org/1999/xlink" x="0px" y="0px"
	 viewBox="0 0 792 612" style="enable-background:new 0 0 792 612;" xml:space="preserve">
<style type="text/css">
	.st0{fill-rule:evenodd;clip-rule:evenodd;fill:#010101;}
	.st1{fill:#010101;}
</style>
<path class="st1" d="M500.56,334.44c1.99-34.62,22.74-71.8,41.45-85.06c0,0-45.53-18.82-92.61,68.4c0,0-40.02-43.32-8.29-92.82
	c31.72-49.49,62.47-71.75,29.8-147.74c0,0-10.12,52.64-46.14,75.42c-36.02,22.79-105.18,72.54-59.33,118.79
	c50.35,50.8,9.36,103.35,9.36,103.35s14.33-55.33-25.04-79.42c-25.74-15.75-45.25-58.23-19.04-83.22c0,0-108.62,78.53-73.86,122.39
	c34.75,43.85,50.92,40.63,33.41,72.72c-17.52,32.1-59.41,81.02,57.63,117.65c11.01,3.45,21.84,5.98,32.41,7.7
	c18.72-17.64,2.2-47.62-20.48-69.16c-33.48-31.81-12.62-49.38,18.42-60.27c47.72-16.74,36.83-77.02,36.83-77.02
	c6.7,8.37,23.44,33.49,15.07,56.92c-8.37,23.44,11.72,40.18,36.83,60.27c25.11,20.09-1.67,58.6-1.67,58.6
	c6.7-15.07-6.7-28.46-35.16-48.55c-28.46-20.09-23.44-33.48-23.44-33.48c-13.4,11.72-15.07,13.39,13.39,40.18
	c19.12,17.99,18.58,50.32,9.08,74.69c76.07-5.95,126.28-56.47,106.02-110.18C522,389.61,498.63,367.85,500.56,334.44z
	 M321.21,386.27c1.46-16.59-12.19-25.62-33-39.65c-20.81-14.03,17.95-56.46,17.95-56.46c-12.65,36.37,6.43,39.21,21.15,57.55
	C342.03,366.06,321.21,386.27,321.21,386.27z M486.04,447.34c9.94-18.46-4.26-39.76-19.88-58.22c-15.62-18.46,14.2-46.86,14.2-46.86
	c-4.26,21.3,4.26,29.82,22.72,59.64C521.55,431.72,486.04,447.34,486.04,447.34z"/>
</svg>
