<?xml version="1.0" encoding="utf-8"?>
<!-- Generator: Adobe Illustrator 25.1.0, SVG Export Plug-In . SVG Version: 6.00 Build 0)  -->
<svg version="1.1" id="Layer_1" xmlns="http://www.w3.org/2000/svg" xmlns:xlink="http://www.w3.org/1999/xlink" x="0px" y="0px"
	 viewBox="0 0 792 612" style="enable-background:new 0 0 792 612;" xml:space="preserve">
<style type="text/css">
	.st0{fill-rule:evenodd;clip-rule:evenodd;fill:#010101;}
	.st1{fill:#010101;}
</style>
<path class="st0" d="M268.15,291.58c25.81-39.18,21.03-62.69,21.03-62.69l11.47,43.45c0,0,23.9-9.26,50.67-52
	c33.85-54.04-39.19-91.74,46.85-159.57c-9.56,12.82-24.86,42.74,14.34,104.01C436.07,201.6,540.07,288.11,531.54,402
	c4.3-4.63,11.47-24.22,11.47-24.22c49.79,63.26,40.71,133.5-32.08,169.54c5.09-13.41,5.34-29.62-0.44-40.51
	c-8.81,18.67-20.85,27.41-33.95,32.9c4.56-47.32,10.01-71.55-30.27-116.99c-33.56-37.86-44.45-39.86-68.08-88.91
	c7.56,32.49,18.14,84.44-46.13,103.78l-17.2-14.68c5.62,38.8-54.48,85.3-32.97,128.3C184.44,502.09,213.28,374.86,268.15,291.58z"/>
</svg>
