<?xml version="1.0" encoding="utf-8"?>
<!-- Generator: Adobe Illustrator 25.1.0, SVG Export Plug-In . SVG Version: 6.00 Build 0)  -->
<svg version="1.1" id="Layer_1" xmlns="http://www.w3.org/2000/svg" xmlns:xlink="http://www.w3.org/1999/xlink" x="0px" y="0px"
	 viewBox="0 0 792 612" style="enable-background:new 0 0 792 612;" xml:space="preserve">
<style type="text/css">
	.st0{fill-rule:evenodd;clip-rule:evenodd;fill:#010101;}
	.st1{fill:#010101;}
</style>
<g>
	<path class="st1" d="M524.35,266.05c0,0,6.32,50.94-23.89,70.26c-30.21,19.32-45.67,5.27-50.58,27.75
		c-4.92,22.48-10.19,47.42-24.94,46.72c-14.75-0.7-1.05-40.75-1.05-40.75s-19.58,14.05-27.88,0c-8.3-14.05,8.56-57.96,28.93-60.42
		c20.37-2.46,14.4,27.4,14.4,27.4s33.72-25.64,43.21-61.83c9.48-36.18-12.65-57.61-34.43-61.83c-21.78-4.22-48.13,8.78-45.32-11.94
		c2.81-20.73,51.64-38.99,48.13-68.85c-3.51-29.86-37.59-34.07-61.12-34.78c0,0,36.53,10.89,31.26,32.67
		c-5.27,21.78-14.05,24.24-60.42,24.94c-46.37,0.7-45.32,20.02-41.45,41.45c3.86,21.43,12.3,42.15-8.43,47.42
		c-20.73,5.27-73.07,4.57-73.42,43.56c-0.35,38.99,28.1,44.26,23.18,62.88c-4.92,18.62-22.83,41.8,1.4,83.96
		c24.24,42.15,55.15,42.86,79.74,35.48c24.59-7.38,40.4-20.02,47.42-4.04c7.03,15.98,16.16,41.98,50.94,47.25
		c34.78,5.27,64.99-14.4,76.58-39.34c11.59-24.94,0.35-48.13-3.51-61.12c-3.86-13,0-23.54,16.51-38.29
		C546.13,359.84,579.15,350.01,524.35,266.05z"/>
	<path class="st1" d="M438.63,168.75c0,0,49.53-7.38,16.86-41.63C455.49,127.12,470.25,147.14,438.63,168.75z"/>
	<path class="st1" d="M337.99,151.36c0,0-60.07,3.16-24.77,43.21C313.23,194.56,296.89,163.48,337.99,151.36z"/>
	<path class="st1" d="M466.64,314.84c0,0,49.45-3.83,22.57-57.57C489.22,257.27,498.87,290.21,466.64,314.84z"/>
</g>
</svg>
