<?xml version="1.0" encoding="utf-8"?>
<!-- Generator: Adobe Illustrator 25.1.0, SVG Export Plug-In . SVG Version: 6.00 Build 0)  -->
<svg version="1.1" id="Layer_1" xmlns="http://www.w3.org/2000/svg" xmlns:xlink="http://www.w3.org/1999/xlink" x="0px" y="0px"
	 viewBox="0 0 792 612" style="enable-background:new 0 0 792 612;" xml:space="preserve">
<style type="text/css">
	.st0{fill-rule:evenodd;clip-rule:evenodd;fill:#010101;}
	.st1{fill:#010101;}
</style>
<path class="st0" d="M352.97,518.04c-31.33-10.66-81.03-40.92-72.1-121.11c-0.48-47.22-30.18-69.35-30.18-69.35
	c47.83,1.46,60,49.89,71.29,47.05c8.74-2.2,7.43-14.08-14.03-39.96c-34.97-42.16,9.57-96.17,7.16-93.33
	c-9.81,50,20.37,95.25,38.06,81.29c17.37-17.24-58.35-92.4,11.34-157.85c22.67-21.29,15.4-70.81,15.4-70.81
	c-0.68,3.35,29.52,47.13,15.03,88.1c-12.97,36.68-25.9,49.82-7.86,71.73c15.97,19.4,29.1,7.67,30.32-16.99
	c1.22-24.66-8.99-37.34-8.99-37.34s19.85,2.48,35.57,30.16c15.72,27.68,0.32,41.49,5.84,61.27c5.52,19.77,13.9,23.76,20.07,12.46
	c6.16-11.3-4.42-38.88,30.63-43.51c3.29-0.43-21.91,12.63-9.29,41.61c12.61,28.98,19.13,39.44,12.33,62.84
	c-6.81,23.4-16.44,24.65-12.78,31.17c5.13,9.12,18.42,11.37,19.48-5.03c2.71-41.95,29.46-50,30.97-49.92
	c1.51,0.08-14.29,2.43-4.55,38.01c9.74,35.57-5.69,97.44-42.09,125.84c-5.4,4.21-11.8,7.59-18.76,10.29
	c0.62-1.17,1.2-2.37,1.74-3.58c5.08-11.43,7.75-24.03,9.73-36.43c-6.38,17.06-11.66,22.08-16.53,26.05
	c-7.64,6.22-23.99-11.02-18.54-19.13c24.44-36.36,8.96-66.7,6.25-73.91c-3.67,27.95-9.37,31.87-14.95,30.04
	c-19.47-6.4-6.8-41.47-15.46-60.39c0.22,31.74-15.86,29.89-20,29.89c-4.67,0-32.47-26.44-19.24-73.9
	c-31.22,55.07,15.26,98.62,1.74,110.83c-9.39,8.48-32.94-12.94-38.59-18.89c17.56,30.8,19.32,56.68,11.79,56.05
	c-10.13-0.85-6.8-8.38-28.7-24.48c5.35,11.76,8.69,23.86,10.58,36.72C346.92,502.21,348.6,510.41,352.97,518.04z"/>
</svg>
