<?xml version="1.0" encoding="utf-8"?>
<!-- Generator: Adobe Illustrator 25.1.0, SVG Export Plug-In . SVG Version: 6.00 Build 0)  -->
<svg version="1.1" id="Layer_1" xmlns="http://www.w3.org/2000/svg" xmlns:xlink="http://www.w3.org/1999/xlink" x="0px" y="0px"
	 viewBox="0 0 792 612" style="enable-background:new 0 0 792 612;" xml:space="preserve">
<style type="text/css">
	.st0{fill-rule:evenodd;clip-rule:evenodd;fill:#010101;}
	.st1{fill:#010101;}
</style>
<g>
	<path class="st1" d="M440.23,292.62c-0.01-0.03-0.02-0.07-0.03-0.1C440.2,292.52,440.21,292.56,440.23,292.62z"/>
	<path class="st1" d="M617.14,422.28c1.64-38.99-24.57-43.25-27.2-54.72c-2.62-11.47,10.16-15.73-1.97-33.09
		c-12.12-17.37-25.89-17.37-25.89-17.37c16.06,8.52,18.68,18.35,10.49,34.73c-8.19,16.38-4.26,23.26,4.91,32.44
		c9.17,9.17,5.57,23.92-9.17,27.2c-13.17,2.93-25,14.97-27.39,17.52c3.78-4.16,29.87-34.46,19.52-67.32
		c-11.14-35.39-52.43-47.18-56.03-68.48c-3.6-21.3,11.14-25.23,1.64-39.98c-9.5-14.74-30.8-16.38-30.8-16.38s14.74,8.19,13.43,21.3
		c-1.31,13.11-44.89,27.85-27.85,43.91c17.04,16.06,32.11,21.63,30.15,44.24c-1.97,22.61-24.57,29.82-24.57,29.82
		c25.89-23.59,8.52-50.13-7.86-63.57c-15.27-12.52-18.01-19.06-18.32-19.89c2.51,6.08-5.36,33.92-21.66,20.87
		c-16.38-13.11-20.97-52.75-6.23-56.03c14.75-3.28,23.59,23.26,23.59,23.26c6.23-74.38-58.65-64.55-64.88-73.4
		c-6.23-8.85,1.97-8.52,10.16-25.89c8.19-17.37-25.56-20.97-36.7-40.63c-11.14-19.66-35.39-31.13-35.39-31.13
		c18.35,18.02,14.74,51.12,2.29,56.69c-12.45,5.57-52.1,15.73-51.77,49.15c0.33,33.42,31.78,34.4,58.65,39.98
		c26.87,5.57,19.66,49.15,19.66,49.15c-30.47-63.57-76.02-28.51-99.61-37.68c-23.59-9.17-12.45-29.82-12.45-29.82
		c-16.71,17.04-21.95,38.34-16.06,58c5.9,19.66,30.8,12.45,37.35,19.99c6.55,7.54-7.54,13.43-6.23,27.2
		c1.31,13.76,15.07,9.17,19.99,21.3c4.91,12.12-3.93,27.85-3.93,27.85c-0.66-18.35-9.5-24.25-21.3-27.85
		c-11.8-3.6-17.69-8.19-14.42-18.02c3.28-9.83,4.59-15.73-7.54-21.63s-7.86-10.16-9.17-17.04c-1.31-6.88-11.8-11.8-11.8-11.8
		s5.24,3.6,2.29,15.4c-2.95,11.8,4.26,15.07,5.24,22.94c0.98,7.86-19.33,15.4-18.02,28.18c1.31,12.78,13.76,8.85,21.04,23.26
		c7.27,14.42-0.06,37.03-0.06,37.03c1.64-25.89-28.51-36.04-28.51-36.04c21.95,15.73,16.38,27.52,16.38,54.39
		c0,26.87,32.11,36.04,32.11,36.04c-42.27,0.66-48.49-21.63-48.49-21.63c13.76,51.77,95.68,30.47,117.63,27.85
		c21.95-2.62,22.94,11.8,38.34,15.07c15.4,3.28,34.08-11.8,34.08-11.8s0.33,14.42,33.75,16.38c33.42,1.97,36.04-28.18,54.39-20.97
		c18.35,7.21,26.21,20.97,49.15,13.11c22.94-7.86,19.66-3.28,49.15,3.93c29.49,7.21,46.53-33.42,46.53-33.42
		c-3.95,7.5-21.63,8.52-21.63,8.52S615.5,461.27,617.14,422.28z"/>
</g>
</svg>
