<?xml version="1.0" encoding="utf-8"?>
<!-- Generator: Adobe Illustrator 25.1.0, SVG Export Plug-In . SVG Version: 6.00 Build 0)  -->
<svg version="1.1" id="Layer_1" xmlns="http://www.w3.org/2000/svg" xmlns:xlink="http://www.w3.org/1999/xlink" x="0px" y="0px"
	 viewBox="0 0 792 612" style="enable-background:new 0 0 792 612;" xml:space="preserve">
<style type="text/css">
	.st0{fill-rule:evenodd;clip-rule:evenodd;fill:#010101;}
	.st1{fill:#010101;}
</style>
<g>
	<path class="st1" d="M579.67,185.83c-14.92,11.16-18.49,21.21-52.58,18.54c-34.08-2.68-94.71-22.13-124.54,0.53
		c-29.83,22.66,3.21,56.06-21.56,84.35c-24.77,28.29-33.61,12.01-62.02,9.28c-28.41-2.73-42.93,14.44-42.93,14.44
		c1.79-22.72,2.42-25.73,25.78-27.29c23.36-1.56,57.66-11.24,61.76-35.65c4.11-24.41-20.12-43.88-11.83-49.3
		c8.3-5.42,22.78,7.46,22.78,7.46c-14.62-25.24-36.98-26.02-43.5-9.6c-6.52,16.42-7,35.46-52.03,40.57
		c-45.03,5.11-81.81-0.88-117.58,30.18c-35.76,31.06-41.15,95.89-18.51,124.06c22.64,28.16,50.5,8.53,50.5,8.53
		s4.91,24.33,37.36,30.36c32.45,6.03,63.51-26.99,63.51-26.99c109.75,23.99,140.55-2.02,148.72-20.46
		c8.17-18.44,22.43,6.13,55.65-11.89c33.22-18.02,21.67-38.27,29.52-55.38c7.85-17.1,17.7-0.17,49.95-13.84
		c32.26-13.67,36-41.42,36-41.42s-4.62,6.05-33.61,12.01s-46.44-2.56-64.13-2.39c-17.7,0.17-11.85,17.81-18.21,16.2
		c-6.36-1.61-2.85-18.67-2.85-18.67s-32.11-5.7-7.82-14.94c24.29-9.24,58.14,3.77,89.06-9.21c30.93-12.98,27.76-29.66,37.65-43.11
		c9.89-13.45,48.43,1.54,48.43,1.54C624.69,180.39,594.59,174.67,579.67,185.83z"/>
	<path class="st1" d="M241.1,239.01c0,0-61.84-24.95-89.36,30.41C151.74,269.42,180.41,230.08,241.1,239.01z"/>
	<path class="st1" d="M478.07,193.66c0,0-49.46-38.98-87.05,10.16C391.02,203.82,423.29,174.15,478.07,193.66z"/>
</g>
</svg>
