<?xml version="1.0" encoding="utf-8"?>
<!-- Generator: Adobe Illustrator 25.1.0, SVG Export Plug-In . SVG Version: 6.00 Build 0)  -->
<svg version="1.1" id="Layer_1" xmlns="http://www.w3.org/2000/svg" xmlns:xlink="http://www.w3.org/1999/xlink" x="0px" y="0px"
	 viewBox="0 0 792 612" style="enable-background:new 0 0 792 612;" xml:space="preserve">
<style type="text/css">
	.st0{fill-rule:evenodd;clip-rule:evenodd;fill:#010101;}
	.st1{fill:#010101;}
</style>
<path class="st0" d="M524.89,437.49c7.92-43.57-4.53-49.79-9.05-74.41c-4.53-24.61,7.07-23.48,7.92-40.46
	c0.85-16.98-16.41-33.95-15-33.39c1.42,0.57,12.16,18.11,1.13,30.27c-11.03,12.17-27.44,10.75-27.16-14.15
	c0.28-24.9,10.18-22.63,8.2-44.98c-1.98-22.35-12.73-35.93-12.45-34.23c0.28,1.7,8.49,20.94-2.55,37.06
	c-11.03,16.13-25.75,23.2-28.58,8.49c-2.83-14.71,10.47-22.92,12.17-35.65c1.7-12.73-6.22-16.98-7.36-28.29
	c-1.13-11.32,1.13-18.11,1.13-18.11s-8.49,11.6-11.6,29.14c-2.58,14.52-9.98,38.29-24.33,10.61c-5.94-11.46-8.29-23.29-2.07-38.56
	c11.66-28.63-22.71-63.73-17.03-85.92c0,0-7.36,17.54-5.94,41.59c1.41,24.05,7.5,25.94,0.14,44.04
	c-7.35,18.11-12.73,25.41-15.71,42.39c-2.97,16.97,5.8,40.03-0.99,47.39c-6.79,7.36-11.17,6.65-13.58-6.08
	c-2.41-12.73,6.22-29.85,6.22-29.85s-17.97,22.63-18.96,36.64c-0.99,14.01,9.9,19.24,6.79,39.04c-3.11,19.81-16.41,23.77-23.77,15
	c-7.36-8.77-9.62-26.03-4.53-36.5c5.09-10.47,6.79-23.2-3.96-32.25c-10.75-9.05-16.98-10.75-15-9.34
	c1.98,1.42,13.58,18.67,9.34,31.97c-4.24,13.3-11.88,16.13-16.41,42.15c-4.53,26.03,10.19,29.99,7.92,45.27
	c-2.26,15.28-9.05,18.96-14.15,11.32c-5.09-7.64,6.79-15.84-4.53-29.71c-11.32-13.86-26.03-22.35-26.03-22.35
	s17.82,16.41,16.98,38.48c-0.85,22.07-18.67,27.16-17.54,66.2c1.03,35.68,24.49,55.87,54.1,66.45c-0.14-0.88-0.23-1.78-0.26-2.69
	c-0.23-5.84,3.4-28.84,6.03-32.51c0.06,10.41,9.55,17.01,16.85,12.12c15.18-10.16-1.68-25.42,2.31-37.52
	c4.91,8.8,8.56,27.33,26.03,13.78c14.56-11.3,2.37-22.64,0.85-36.67c11.73,13.15,13.67,11.95,16.46,9.69
	c7.2-5.85,4.25-14.59,3.45-21.67c-0.59-5.22-0.08-20.86,7.54-30.47c-0.74,8.72-11.9,32.43,10.67,35.47
	c8.98,1.21,12.98-9.8,15.05-14.92c3.62,17.38-20.75,26.85-0.24,33.17c4.32,1.33,11.39-0.62,22.22-14.37
	c-1.45,8.81-19.03,28.66-3.02,34.14c9.36,3.21,7.4-7.19,26.97-11.51c-9.57,11.51-13.11,21.9-12.15,25.8c1,4.08,2.67,7.58,4.51,11.45
	c3.72,7.8,3.3,13.14,1.31,21.36c-0.47,1.96-1.1,3.85-1.89,5.66C492.77,497.18,517.64,477.35,524.89,437.49z"/>
</svg>
