<?xml version="1.0" encoding="utf-8"?>
<!-- Generator: Adobe Illustrator 25.1.0, SVG Export Plug-In . SVG Version: 6.00 Build 0)  -->
<svg version="1.1" id="Layer_1" xmlns="http://www.w3.org/2000/svg" xmlns:xlink="http://www.w3.org/1999/xlink" x="0px" y="0px"
	 viewBox="0 0 792 612" style="enable-background:new 0 0 792 612;" xml:space="preserve">
<style type="text/css">
	.st0{fill-rule:evenodd;clip-rule:evenodd;fill:#010101;}
	.st1{fill:#010101;}
</style>
<path class="st0" d="M260.74,308.63c24.58-43.84,16.52-69.94,16.52-69.94s8.23,17.65,14.29,48.94c6.06,31.29-4.48,51.37-4.48,51.37
	s8.47,6.48,32.99-36.15c31.29-54.41-6.22-105.08,72.64-121.69c-4.69,0.61-27.73,10.48-27.69,51.06
	c0.04,40.58,12.16,55.07,24.48,58.09c12.3,3.02-5.89-67.1,73.28-102.88c37.61-17,36.16-53.9,27.27-67.21
	c-8.89-13.31-11.02-15-11.02-15s24.44,8.2,28.54,37.16c4.1,28.97-4.43,42.34-23.75,68.33c-10.54,14.17-44.18,69.95-9.47,81.5
	c15.42,5.13,27.72,2.07,27.01-25.07c-0.89-28.84,25.65-44.32,54.86-53.61c-39.48,38.18-13.84,48.86-34.87,88.52
	c-37.04,69.88-3.47,83.41,29.76,37.23c0,0-18.2,70.57-44.28,112.89c-19.62,31.84-66.72,48.25-102.9,54.58
	c5.1-4.67,9.67-10.13,13.57-16.45c4-6.49,7.29-13.37,10.25-20.39c2.52-5.99,6.68-13.49,7.36-19.85
	c-4.81,4.15-11.81,12.13-18.86,8.07c-8.3-4.79-8.71-18.85-4.7-26.57c3.99-7.68,9.45-14.9,11.96-23.26
	c2.61-8.69,2.05-18.21,6.23-26.44c-5.68,5.01-7.98,12.77-9.52,20.19c-0.82,3.93-1.68,8.21-4.7,10.86c-2.34,2.06-5.59,2.74-8.7,2.8
	c-9.34,0.17-18.49-5.2-23.23-13.2c-5.7-9.62-2.05-22.71,1.92-32.31c3.09-7.47,7.6-15.65,12.43-22.24c-0.19,0.09-0.38,0.17-0.56,0.26
	c-16.03,7.25-27.62,18.06-33.01,35c-1.52,4.78-2.36,9.5-3.24,14.42c-1.09,6.1-2.54,12.57-9.2,14.97c-2.18,0.79-4.53,0.88-6.78,0.33
	c-13.88-3.41-19.6-16.77-21.76-30.21c-1.62,11.96-4.24,22.6-10.37,33.26c-4.48,7.78-11.39,19.05-18.81,24.4
	c-4.89,3.53-11.45,5.05-16.61,1.11c-7.22-6.48-0.94-11.19-0.13-24.5c-0.45,0.84-0.9,1.67-1.36,2.49
	c-9.52,16.97-14.15,33.54-14.23,48.47C228.66,429.97,226.01,370.57,260.74,308.63z"/>
</svg>
