<?xml version="1.0" encoding="utf-8"?>
<!-- Generator: Adobe Illustrator 25.1.0, SVG Export Plug-In . SVG Version: 6.00 Build 0)  -->
<svg version="1.1" id="Layer_1" xmlns="http://www.w3.org/2000/svg" xmlns:xlink="http://www.w3.org/1999/xlink" x="0px" y="0px"
	 viewBox="0 0 792 612" style="enable-background:new 0 0 792 612;" xml:space="preserve">
<style type="text/css">
	.st0{fill-rule:evenodd;clip-rule:evenodd;fill:#010101;}
	.st1{fill:#010101;}
</style>
<g>
	<path class="st1" d="M495.74,162.94c0,0-23.95,4.13-48.72,34.68c-24.77,30.55-24.36,48.31-2.48,68.95
		c21.88,20.64,11.31,35.09,11.31,35.09c-6.03-43.35-55.9-40.87-62.39-64.82c-6.5-23.95-4.24-34.27,22.61-45.42
		c26.85-11.15,47.88-27.66,36.74-47.89c-11.15-20.23-59.04-14.04-71.43-34.68c-12.39-20.64,35.51-22.71,35.51-22.71
		c-72.25-9.5-70.19,44.59-51.61,68.12c18.58,23.53,2.48,13.21-27.25,32.2c-29.73,18.99-51.47,78.71-10.32,112.3
		c41.15,33.59,39.22,65.65,39.22,65.65c18.17-41.7-16.93-66.89-2.06-66.06c14.86,0.83,59.04,46.65,41.29,76.79
		c-17.75,30.14-32.2,8.26-32.2,8.26c-6.61,41.7-45.42,0.41-45.42,0.41c37.98-49.13-6.61-67.71-32.62-101.15
		c-26.01-33.44,3.3-54.91,3.3-54.91c-37.16,16.93-68.12,72.25-62.76,101.57c5.37,29.31,36.75,33.44,47.07,48.72
		c10.32,15.28-37.16,49.96,18.58,72.25c55.74,22.3,69.36,7.84,69.36,7.84c-9.5,0-26.42-20.64,0-25.6
		c26.42-4.95,38.4,7.84,34.27,19.41c-4.13,11.56-16.51,35.92,14.04,52.43c30.55,16.52,34.68,59.45,34.68,59.45
		c-1.24-59.04,31.79-67.3,45.83-82.16c14.04-14.86,9.91-40.46-9.91-59.04c-19.82-18.58-15.28-61.52,7.43-62.76
		c22.71-1.24,4.13,33.86,4.13,33.86c79.27-62.34,7.43-136.25-19.82-169.28C454.86,191.43,495.74,162.94,495.74,162.94z"/>
	<path class="st1" d="M513.71,241.94c0,0,42.72,46.52,31.99,86.15C545.69,328.09,584.12,270.56,513.71,241.94z"/>
	<path class="st1" d="M433.39,85.04c0,0,62.76-22.84-14.04-36.88C419.35,48.16,459.82,64.94,433.39,85.04z"/>
</g>
</svg>
