<?xml version="1.0" encoding="utf-8"?>
<!-- Generator: Adobe Illustrator 25.1.0, SVG Export Plug-In . SVG Version: 6.00 Build 0)  -->
<svg version="1.1" id="Layer_1" xmlns="http://www.w3.org/2000/svg" xmlns:xlink="http://www.w3.org/1999/xlink" x="0px" y="0px"
	 viewBox="0 0 792 612" style="enable-background:new 0 0 792 612;" xml:space="preserve">
<style type="text/css">
	.st0{fill-rule:evenodd;clip-rule:evenodd;fill:#010101;}
	.st1{fill:#010101;}
</style>
<g>
	<path class="st1" d="M576.88,135.85c14.43,34.57-14.94,62.68-44.99,77.25c-30.05,14.57-20.4,21.53-13.18,39.53
		c7.22,18.01-6.83,60.08-37.38,78.44c-30.55,18.37-72.39,9.01-108.45-0.04c-36.06-9.05-45.34,3.51-45.34,3.51
		c0.96-13.2,11.38-19.63,11.38-19.63c-36.13,1.79-41.75-18.58-17.85-33.27c23.9-14.69,47.39,3.34,46.56,11.12s-12.6,5.72-12.6,5.72
		c8.17,3.9,1.16,7.4,1.16,7.4c23.63,13.51,114.3,6.85,127.04-21.83c12.74-28.68-19.14-54.04-20.2-70.12
		c-1.06-16.08,16.69-12.45,16.69-12.45s-39.8-21.85-57.03-9.39c-17.23,12.46-3.21,42.33-17.66,43.55
		c-14.45,1.22-35.29-22.8-80.42-16.94c-45.13,5.86-42.02,28.96-57.8,41.41c-15.79,12.44-48.3,14.92-74.16,32.16
		c-25.86,17.24-28.11,46.9-17.22,89.1c10.89,42.19,37.37,51.7,37.37,51.7c22.75,34.85,64.52,17.45,64.52,17.45
		c12.8,15.06,21.44,11.36,41.45-12.33c20.02-23.69,27.71-12.92,56.77,1.26c29.06,14.18,86.96,57.73,164.72,24.44
		c77.76-33.28,69.28-88.15,69.28-88.15s-1.86,32.19-43.34,41.27c-41.49,9.08-62.21-3.38-62.21-3.38
		c75.77-14.83,97.99-72.88,88.3-103.52c-9.69-30.64,24.64-32.05,30.03-72.49C627.72,197.19,576.88,135.85,576.88,135.85z"/>
	<path class="st1" d="M504.13,239.58c0,0-26.24-22.52,34.9-35.58C539.03,203.99,445.8,207.6,504.13,239.58z"/>
	<path class="st1" d="M348.26,214.23c0,0-62.19-38.71-71.39,19.94C276.87,234.17,291.19,200.41,348.26,214.23z"/>
</g>
</svg>
