<?xml version="1.0" encoding="utf-8"?>
<!-- Generator: Adobe Illustrator 25.1.0, SVG Export Plug-In . SVG Version: 6.00 Build 0)  -->
<svg version="1.1" id="Layer_1" xmlns="http://www.w3.org/2000/svg" xmlns:xlink="http://www.w3.org/1999/xlink" x="0px" y="0px"
	 viewBox="0 0 792 612" style="enable-background:new 0 0 792 612;" xml:space="preserve">
<style type="text/css">
	.st0{fill-rule:evenodd;clip-rule:evenodd;fill:#010101;}
	.st1{fill:#010101;}
</style>
<path class="st0" d="M328.58,237.62c-35.81,74.36-21.79,104.19,9.43,105.01c13.72,0.36,31.79-16.58,18.91-84.83
	c-29.6-156.88,99.59-172.16,96.19-169.79c-46.33,32.22-72.48,97.67-38.52,161.36c41.24,77.32-17.42,91.9,13.47,110.98
	c39.43,24.35,61.25-94.66,36.63-146.46c0,0,41.21,42.5,48.29,104.95c7.08,62.46-24.47,92.08-27.69,112.68
	c-3.22,20.61,1.61,22.21,1.61,22.21s10.62,6.44,27.37-17.06c16.74-23.5,12.23-40.89,12.23-40.89s11.59,10.95,8.69,36.06
	c-6.26,54.21-46.34,86.28-103.8,92.36c-1.83-5.63-1.21-12.63-0.38-17.94c0.79-5.06,3.03-9.86,5.29-14.42
	c2.3-4.63,4.67-9.16,6.66-13.93c5.45-13.09,7.1-25.71,5.5-39.83c-0.48-4.2-1.24-8.35-2.26-12.44
	c-2.71,20.57-10.51,47.24-29.77,50.64c-5.76,1.02-11.36-0.41-16.28-3.45c-5.63-3.48-10.07-8.23-11.17-14.98
	c-1.48-9.08,4.15-16.52,6.06-24.99c2.69-11.92-1.98-24.21-7.52-34.6c-11.1-20.82-14.28-44.28-7.78-67.07
	c0.11-0.37,0.21-0.74,0.32-1.11c-11.86,19.22-11.71,43.82-7.53,65.95c2.8,14.83,5.12,34.63-0.17,49.17
	c-3.73,10.26-11.91,18.44-23.42,18.14c-6.84-0.18-13.49-2.01-18.98-6.22c-6.36-4.88-9.66-11.7-10.94-19.1
	c-8.08,18.76-12.4,41.17-8.47,61.59C221.25,441.79,252.86,301.58,328.58,237.62z"/>
</svg>
