<?xml version="1.0" encoding="utf-8"?>
<!-- Generator: Adobe Illustrator 25.1.0, SVG Export Plug-In . SVG Version: 6.00 Build 0)  -->
<svg version="1.1" id="Layer_1" xmlns="http://www.w3.org/2000/svg" xmlns:xlink="http://www.w3.org/1999/xlink" x="0px" y="0px"
	 viewBox="0 0 792 612" style="enable-background:new 0 0 792 612;" xml:space="preserve">
<style type="text/css">
	.st0{fill-rule:evenodd;clip-rule:evenodd;fill:#010101;}
	.st1{fill:#010101;}
</style>
<path class="st0" d="M545.7,362.2c-6.84,26.6-24.4,35.92-29.41,31.55c-13.74-11.98,2.46-40.85-2.86-58.66
	c-19.09-63.84-29.88-56.69-8.38-106.49c-40.24,31.76-34.93,56.87-32.87,88c0.48,7.24-11.26,10.53-18.66,2.09
	c-9.11-10.4,17.02-41.46-8.55-79.13c-16.52-24.33,0.35-55.49,0.35-55.49c-53.05,52.55-15.88,79.62-27.03,95.95
	c-7.94,11.62-19.44,8.13-27.57-0.71c-9-9.78,2.31-34.25,6.13-47.4c10.57-36.32,10.85-81.66-46.78-137.97
	c35.36,71.99,1.43,105.21-13.31,152.61c-11.36,36.5,21.09,57.76,5.72,63.33c-19.2,8.11-34.99-45.68-20.5-90.12
	c-34.6,51.28-21.54,72.58-5.66,114.15c12.02,31.45,4.6,37.81-9.19,36.05c-13.78-1.77-4.95-24.03-9.54-45.59
	c-4.59-21.56-29.69-38.52-29.69-38.52s17.32,21.56,13.08,34.99c-4.24,13.43-46.65,67.5-31.46,120.51
	c9.09,31.7,25.03,58.69,59.19,74.84c-1.13-2.94-2.11-5.93-2.98-8.95c-4.07-14.18-0.49-29.13,5.1-42.35
	c2.2-5.2,4.75-10.19,7.45-15.13c-0.09,7.25,0.2,14.42,5.16,19.34c2.45,2.43,5.57,3.82,8.98,4.26c5.28,0.68,10.65,0.13,14.99-3.25
	c10.38-8.07,5.52-23.69,1.65-33.81c-0.35-0.91-0.71-1.83-1.08-2.78c1.44,0.59,2.98,0.98,4.64,1.15c2.67,0.27,5.32-0.14,7.81-1.14
	c3.55-1.35,6.46-3.77,8.01-7.3c5.44-12.4-11.28-22.86-5.83-40.4c3.3-10.6,8.39-20.56,12.39-30.9c3.64-9.42,5.82-18.2,6.58-26.74
	c0.94,2.43,1.74,4.91,2.38,7.43c3.02,11.93,2.07,23.17-1.34,34.87c-3.53,12.13-12.02,29.37-1.75,40.53
	c9.83,10.68,24.81,12.28,33.66-0.67c1.05-1.54,1.85-3.22,2.39-5c2.26-7.53-0.81-14.57-1.87-21.92c0.11,0.16,0.21,0.32,0.32,0.48
	c5.5,8.11,6.73,15.78,5.22,25.29c-1.43,8.95-5.75,19.49,1.13,27.34c3.61,4.12,8.7,6.66,14.21,6.68c5.59,0.02,11.02-2.65,13.79-7.62
	c1.31-2.35,1.9-5.01,1.72-7.7c-0.16-2.5-0.39-5.07-0.58-7.65c2.82,7.72,5.52,15.33,7.88,23.25c0.85,2.86-0.23,8.85-0.72,11.78
	c-1.42,8.6-3.15,18.04,1.41,26.07c1.1,1.94,2.51,3.67,4.2,5.13c4.04,3.52,8.96,3.78,13.55,2.33c-1.78,10.19-4.73,20.15-9.24,29.2
	C537.54,485.99,546.47,407.35,545.7,362.2z"/>
</svg>
