<?xml version="1.0" encoding="utf-8"?>
<!-- Generator: Adobe Illustrator 25.1.0, SVG Export Plug-In . SVG Version: 6.00 Build 0)  -->
<svg version="1.1" id="Layer_1" xmlns="http://www.w3.org/2000/svg" xmlns:xlink="http://www.w3.org/1999/xlink" x="0px" y="0px"
	 viewBox="0 0 792 612" style="enable-background:new 0 0 792 612;" xml:space="preserve">
<style type="text/css">
	.st0{fill-rule:evenodd;clip-rule:evenodd;fill:#010101;}
	.st1{fill:#010101;}
</style>
<g>
	<path class="st1" d="M439.61,330.63c3.13-40.72,31.33-64.22,31.33-64.22s-40.72-10.96-48.55,39.16
		c-5.3,33.94-36.02-23.49-14.1-57.95c14.54-22.85-4.64-30.38-21.93-48.55c-8.78-9.23-14.1-28.19-1.57-54.82
		c-17.23,7.83-27.25,36.75-27.4,47.16c-0.17,12.27,9.4,23.93,6.55,35.72c-5.11,21-32.51,30.02-33.97,53.38
		c-1.52,24.26,18.59,34.99,28.27,54c0.27,0.53,0.54,1.08,0.79,1.63c11.05,23.76-2.18,51.84-25.93,61.84
		c-29.76,12.53-53.25,53.25-21.93,81.45c31.33,28.19,53.25,36.02,48.55,54.82c0,0,31.33-23.49,9.4-51.69
		c-21.93-28.19-20.36-43.86,0-57.95c0,0-9.4,28.19,6.26,37.59c15.66,9.4,28.19,36.02,18.79,50.12c0,0,26.63-4.7,23.5-26.63
		c-3.13-21.93-39.16-57.95-12.53-101.81c0,0,3.13,36.02,21.93,57.95c18.8,21.93,39.16,48.55,23.49,68.92
		c-15.66,20.36-25.06,32.89-25.06,32.89s73.61,4.7,72.05-83.01C496,372.92,436.49,371.17,439.61,330.63z"/>
	<path class="st1" d="M398.77,165.31c0,0,30.75-1.17,38.76-29.87c8-28.7-43.63-41.82-34.78-67.13c0,0-15.13,17.49,0.99,38.73
		C419.86,128.3,411.69,150.54,398.77,165.31z"/>
	<path class="st1" d="M309.61,316.54c12.53-36.02-20.36-51.69-20.36-51.69c12.53,15.66,14.1,34.46-9.4,62.65
		c-23.49,28.19,28.19,42.29,28.19,42.29S297.08,352.56,309.61,316.54z"/>
	<path class="st1" d="M516.36,357.26c-7.83-20.36-25.06-17.23-17.23-51.69c0,0-28.19,31.33-12.53,54.82
		c15.66,23.49,18.79,48.55,18.79,48.55S524.19,377.62,516.36,357.26z"/>
</g>
</svg>
