<?xml version="1.0" encoding="utf-8"?>
<!-- Generator: Adobe Illustrator 25.1.0, SVG Export Plug-In . SVG Version: 6.00 Build 0)  -->
<svg version="1.1" id="Layer_1" xmlns="http://www.w3.org/2000/svg" xmlns:xlink="http://www.w3.org/1999/xlink" x="0px" y="0px"
	 viewBox="0 0 792 612" style="enable-background:new 0 0 792 612;" xml:space="preserve">
<style type="text/css">
	.st0{fill-rule:evenodd;clip-rule:evenodd;fill:#010101;}
	.st1{fill:#010101;}
</style>
<path class="st0" d="M325.08,498.31c-16.71-10.5-28.17-25.4-36.11-42.44c-14.82-31.8-15.73-78.39-3.79-104.62
	c15.8-34.71,31.62-55.29,2.22-93.48c26.64,7.82,29.6,39.31,29.61,39.28c20.15-48.71-6.38-84.87-6.04-105.97
	c0.4-25.38,14.5-39.49,11.68-35.46c-2.82,4.03-6.45,33.04,11.69,66.48c9.49,17.5,14.4,32.79,16.34,46.45
	c3.77,26.45-15.41,55.22-4.03,67.7c5.13,5.63,18.27,5.91,22.54-2.54c3.9-7.72-11.18-45.73-10.47-67.09
	c1.19-36.01,24.01-61.71,23.97-61.65c-9.67,18.94-13.78,39.89-12.09,66.68c1.2,18.98,8.15,31.83,16.22,37.82
	c10.89,8.09,29.2,3.9,27.3-15.06c-1.59-15.9-43.66-42.6-6.24-128.33c0.41-0.94-7.86,34.05-0.6,60.44
	c7.25,26.39,15.92,37.87,26.59,37.47c10.68-0.4,13.58-7.98,8.46-16.52c-46.87-78.2-0.2-145.23-2.21-141.83
	c-3.22,5.44-7.6,83,18.33,127.32c35.54,60.74-10.99,64.24-7.05,122.89c1.61,23.97,18.33,29.21,29.61,15.71
	c18.05-21.6-39.65-85.87,19.34-108.39c-2.42,1.81-31.83,8.86-6.85,63.66c33.63,73.76,32.87,154.57-38.5,179.6
	c8.13-18.3,3.51-41.44-4.13-60.21c1.01,4.84,1.35,10.13-1.44,14.55c-0.42,0.66-0.91,1.3-1.45,1.89c-3.68,3.99-9.08,6.72-14.96,5.85
	c-9.36-1.38-13.2-10.17-13.76-17.77c-0.64-8.56,0.58-16.37,3.96-24.38c2.23-5.27,5.48-10.33,7.45-15.61
	c1.37-3.67,1.81-7.07,1.19-10.92c-0.94-5.82-4.16-11.77-7.4-16.79c-4.92-7.61-8.04-16.39-10.1-24.97c-1.07-4.49-1.9-9.09-2.5-13.73
	c-0.64,14.66,3.74,28.74,12.31,41.68c5.52,8.33,0.96,16.87-10.01,17.24c-10.7,0.37-16.61-9.34-20.06-18.14
	c0.36,2.4,0.93,4.78,1.73,7.12c1.52,4.41,3.71,8.21,6.28,12.16c2.04,3.14,4.7,6.8,5.11,10.48c0.66,5.92-1.57,11.66-7.52,14.68
	c-5.88,2.98-13.42,2.15-18.75-1.43c-1.2-0.81-2.31-1.72-3.31-2.71c0.24,0.94,0.47,1.88,0.68,2.82c0.81,3.51,1.92,8.53,0.06,11.86
	c-4.27,7.65-17.22,8.84-23.5,2.6c-0.72-0.71-1.34-1.5-1.85-2.34c-2.9-4.74-2-10.5-0.8-15.55c1.22-5.12,2.91-10.16,3.65-15.37
	c0.38-2.66,0.52-5.38,0.1-8.05c-1.05-6.64-3.43-13.07-6.56-19.16c2.73,12.6,1.88,24.48-3.67,36.63c-1.54,3.37-5.37,3.87-8.08,2.44
	c-1.3,9.86-7.51,19.63-12.01,28.58c-4.89,9.72-5.35,23.5-3.97,33.94C322.33,488.67,323.42,493.6,325.08,498.31z"/>
</svg>
