<?xml version="1.0" encoding="utf-8"?>
<!-- Generator: Adobe Illustrator 25.1.0, SVG Export Plug-In . SVG Version: 6.00 Build 0)  -->
<svg version="1.1" id="Layer_1" xmlns="http://www.w3.org/2000/svg" xmlns:xlink="http://www.w3.org/1999/xlink" x="0px" y="0px"
	 viewBox="0 0 792 612" style="enable-background:new 0 0 792 612;" xml:space="preserve">
<style type="text/css">
	.st0{fill-rule:evenodd;clip-rule:evenodd;fill:#010101;}
	.st1{fill:#010101;}
</style>
<g>
	<path class="st1" d="M512.64,436.42c-9.03-46.94-27.08-52.35-27.08-52.35c14.44,23.47-16.25,72.21-46.93,55.96
		c-30.69-16.25,14.44-59.57,30.69-113.73c16.25-54.16-28.88-84.84-28.88-84.84s-9.03,55.96-43.32,34.3
		c-34.3-21.66,14.44-84.84,14.44-84.84c-90.26,81.23-61.38,110.12-34.3,155.24c27.08,45.13,5.42,149.83-19.86,146.22
		c-25.27-3.61-5.42-34.3,10.83-83.04c16.25-48.74-43.32-77.62-43.32-77.62c16.25,39.71-18.05,28.88-39.71,131.78
		c-21.66,102.89,119.14,124.56,119.14,124.56s19.86-52.35,68.6-74.01C521.67,492.38,521.67,483.36,512.64,436.42z"/>
	<path class="st1" d="M485.56,252.3c0,0,41.52-27.08,28.88-63.18c-12.64-36.1-43.32-23.47-34.3-57.77c0,0-30.69,28.88-5.42,57.77
		C500.01,218,485.56,252.3,485.56,252.3z"/>
	<path class="st1" d="M307.57,303.86c0,0,27.01-8.61,13.21-38.64c-13.8-30.03-32.88-38.2-17.83-72.9c0,0-48.86,48.7-17.96,67.72
		C306.18,273.09,315.06,298.95,307.57,303.86z"/>
	<path class="st1" d="M373.64,190.02c0,0,61.38-38.81,55.96-76.72c-5.42-37.91-55.69-39.43-56.86-60.47
		c-0.9-16.25,10.83-28.88,10.83-28.88s-50.55,37.91-26.17,74.91C381.77,135.86,397.11,169.26,373.64,190.02z"/>
</g>
</svg>
