<?xml version="1.0" encoding="utf-8"?>
<!-- Generator: Adobe Illustrator 25.1.0, SVG Export Plug-In . SVG Version: 6.00 Build 0)  -->
<svg version="1.1" id="Layer_1" xmlns="http://www.w3.org/2000/svg" xmlns:xlink="http://www.w3.org/1999/xlink" x="0px" y="0px"
	 viewBox="0 0 792 612" style="enable-background:new 0 0 792 612;" xml:space="preserve">
<style type="text/css">
	.st0{fill-rule:evenodd;clip-rule:evenodd;fill:#010101;}
	.st1{fill:#010101;}
</style>
<path class="st0" d="M300.06,509.58c-10.73-7.04-54.01-36.99-52.39-111.07c20.84,50.28,38.36,37.97,31.08,30.86
	c-3.29-3.21-9.76-10.69-13.7-37.81c-6.35-43.81,10.73-62.93,9.06-58.94c-3.89,9.26,23.59,38.42,27.72,35.75
	c9.55-6.17-23.51-45.39,0.34-74.39c21.25-25.83,15.01-77.66,14.69-83.1c41.11,20.34,28.13,66.09,39.1,69.99
	c10.34,3.67,13.91-6.37,21.68-35.97c7.76-29.6-2.87-41.09-14.79-72.33c-11.91-31.24,43.38-87.06,42.67-83.09
	c-1.71,9.67-22.39,31.33-3.3,80.13c19.09,48.79,23.61,58.59,33.13,49.82c9.51-8.77,3.73-20.03,0.38-35.71
	c-3.35-15.69,16.09-32.86,12.37-30.29c-3.71,2.57,10.68,44.69,29.3,80.33c18.62,35.64-13.33,101.78-7.05,114.86
	c6.27,13.08,16.8,10.58,21.29,2.14c10.62-19.95,6.46-43.14,2.91-80.1c2.13,2.96,15.94,42.02,25.29,96.1
	c9.36,54.09-19.81,75.57-12.78,83.46c7.03,7.89,27.99-25.18,37.27-47.05c0.39,12-9.42,67.96-40.81,96.1
	c-10.41,9.33-21.68,16.79-33.48,22.57c4.57-3.76,10.08-9.41,14.93-17.66c-7.4,4.94-21.43,18-26.68,10.02
	c-4.26-6.48,2.81-10.33,6.3-16.13c4.07-6.79,10.78-21.64,7.71-36.94c-5.59,13.65-21.16,32.13-37.49,9.44
	c-3.77-5.24-1.33-12.01,0.56-17.41c2.01-5.77,4.29-11.49,5.69-17.35c7.27-19.26-2.43-45.24-2.8-45.75
	c-6.67,14.47-5.19,28.53-18.74,28.26c-14.92-0.77-9.02-11.13-32.03-40.65c1.29,14.41,26.02,60.07-9.96,67.22
	c-24.29,4.83-20.52-20.46-25.33-30.9c-1.28,10.03-20.73,24.81-9.5,45.66c2.98,6.9,9.51,14.86,1.49,21.5
	c-1.14,0.94-2.49,1.75-4.01,2.4c-6.57,2.83-15.91-15.51-21.64-18.04c0.81,4.89-6.51,19.11,8.08,30.87c5.53,3.6,7.27,9.15,3.53,13.78
	c-2.59,3.2-9.32-0.42-23.17-11.44c2.19,9.21,9.77,17.74,17.56,24.01C315.79,518.92,307.57,514.51,300.06,509.58z"/>
</svg>
