<?xml version="1.0" encoding="utf-8"?>
<!-- Generator: Adobe Illustrator 25.1.0, SVG Export Plug-In . SVG Version: 6.00 Build 0)  -->
<svg version="1.1" id="Layer_1" xmlns="http://www.w3.org/2000/svg" xmlns:xlink="http://www.w3.org/1999/xlink" x="0px" y="0px"
	 viewBox="0 0 792 612" style="enable-background:new 0 0 792 612;" xml:space="preserve">
<style type="text/css">
	.st0{fill-rule:evenodd;clip-rule:evenodd;fill:#010101;}
	.st1{fill:#010101;}
</style>
<path class="st0" d="M215.2,360.95c9.31-1.56,33.16,1.67,64.95,22.86c-36.25-49.87-47.7-89.02-21.82-144.71
	c0,0,1.11,28.25,23.91,48.95c22.8,20.7,31.78,26.74,30.1,25.02c-1.69-1.73-17.66-22.86-10.33-62.97
	c3.38-18.51,23.45-60.26,1.63-75.05c37.25,19.35,46.04,99.23,46.04,99.2c-8.43-96.88,61.22-96.04,29.34-180.29
	c81.29,56.56,22.57,127.46,51.41,164.91c28.32-42.09,16.79-47.76,21.75-74.11c2.78-14.77,22.03-23.29,19.42-22
	c-2.61,1.29-11.25,22.43,5.85,47.66c17.1,25.23,10.84,56.07,6.03,69.01c-4.8,12.94-9.08,54.53-8.26,56.47
	c13.05-54.52,45.67-37.28,55.55-92.13c17.14,59.51-7.12,113.11-26.66,155.97c23.93,0,31.86-59.28,72.69-46.12
	c-1.5-0.21-20.13,6.62-33.66,53.27c-17,53.75-46.58,84.87-78.86,101.63c6.29-11.74,12.35-25.18,22.46-39.07
	c-16.21-2.36-28.98,29.66-45.54,27.08c18.41-15.36,27.12-49.56,29.48-63.26c2.37-13.72,5.53-20.71,5.53-20.71
	c-25.41,6.48-25.87,40.88-43.21,47.73c0-41.32,25.56-56.54,6.96-96.87c4,22.98-27.62,57.98-26.14,55.39
	c-12.65-21.59-4.67-58.57-5.26-69.88c-0.79-15.1-9.34-25.95-9.34-25.95l-0.53,11.85c0,23.75-35.24,54.61-18.69,98.95
	c-16.89-8.3-11.59-43.26-29.41-56.2c0,0-0.21,21.63,0.45,38.48c0.54,13.98,1.09,24.13,18.69,47.04c-6.3-1.3-18.83-3.25-51.68-48.39
	c0.58,38.9,36.72,80.62,35.23,78.96c-12.99-14.42-44.2-24.36-43.17-23.71c9.92,8.04,13.98,29.6,25.67,48.09
	C262.39,495.89,278.47,428.24,215.2,360.95z"/>
</svg>
