<?xml version="1.0" encoding="utf-8"?>
<!-- Generator: Adobe Illustrator 25.1.0, SVG Export Plug-In . SVG Version: 6.00 Build 0)  -->
<svg version="1.1" id="Layer_1" xmlns="http://www.w3.org/2000/svg" xmlns:xlink="http://www.w3.org/1999/xlink" x="0px" y="0px"
	 viewBox="0 0 792 612" style="enable-background:new 0 0 792 612;" xml:space="preserve">
<style type="text/css">
	.st0{fill-rule:evenodd;clip-rule:evenodd;fill:#010101;}
	.st1{fill:#010101;}
</style>
<path class="st0" d="M298.18,491.15c-4.61-33.8,15.75-57.8-0.19-89.87c-15.94-32.07-33.22-40.33-31.11-39.94
	c2.11,0.38,23.43-3.65,40.13,13.83c16.71,17.47,18.82,28.42,18.82,28.42s10.37-16.13,3.84-48.39c-6.53-32.26-28.8-26.5-30.34-78.35
	c-1.54-51.85,28.42-72.97,28.42-72.97s-17.47,57.03-6.14,74.51c11.33,17.47,26.88,18.43,41.86,0.77
	c24.47-28.86-49.5-65.01,28.03-160.92c14.59-18.05,3.84-49.93,3.84-49.93s11.91,12.29,16.13,41.48
	c4.22,29.19-13.06,39.56-20.74,77.96c-7.68,38.41,17.66,70.28,36.1,65.29c18.43-4.99,23.21-17.26,14.98-38.41
	c-21.45-55.08,20.29-67.9,18.82-66.82c-5.76,4.23-22.66,23.81-6.91,51.85c15.75,28.04,12.68,52.61,9.6,84.49
	c-3.08,31.88-15.75,51.08-8.45,64.52c7.3,13.44,23.04,22.27,33.41,0.77c13.65-28.31-9.99-44.16,27.65-67.98
	c-9.6,14.98-12.29,24.96-4.22,56.84c10.81,42.74,25.1,132.69-1.92,171.67c-10.35,14.93-26.54,25.38-45.82,32
	c11.42-22.59,5.71-85.53,0.16-110.24c-3.5,8.74,4.85,30.29-14.72,34.73c-7.67,1.74-16.01-2.69-21.14-12.12
	c-0.49-0.9-0.9-1.84-1.23-2.81c-2.21-6.44-0.59-13.28,1.06-19.64c1.88-7.25,3.71-13.99,4.43-21.5c0.66-6.87,7.96-21.47,0.89-45.65
	c0.29,22.51-6.7,33.13-13.36,34.94c-10.59,2.87-20.36-4.95-25.7-13.39c-6.63-10.48-8.53-23.57-6.11-35.64
	c1.44-7.17,3.6-13.75,6.47-20.46c1.69-3.96,3.74-8.06,5.08-12.16c-10.99,14.33-20.09,31.36-17.38,49.91
	c0.89,6.08,2.87,11.57,4.83,17.35c1.98,5.85,3.83,11.93,2.68,18.17c-0.68,3.65-2.3,6.88-4.69,9.71
	c-11.38,13.43-26.5,14.62-36.85,0.61c7.2,24.24,39.83,43.28,8.49,82.39c-2.45-14.34-7.94-20.34-17.44-28.18
	c18.4,32.82,6.31,58.87,7.66,68.72c0.34,2.5,0.95,4.84,1.9,7.01C323.64,535.84,302.16,520.35,298.18,491.15z"/>
</svg>
