<?xml version="1.0" encoding="utf-8"?>
<!-- Generator: Adobe Illustrator 25.1.0, SVG Export Plug-In . SVG Version: 6.00 Build 0)  -->
<svg version="1.1" id="Layer_1" xmlns="http://www.w3.org/2000/svg" xmlns:xlink="http://www.w3.org/1999/xlink" x="0px" y="0px"
	 viewBox="0 0 792 612" style="enable-background:new 0 0 792 612;" xml:space="preserve">
<style type="text/css">
	.st0{fill-rule:evenodd;clip-rule:evenodd;fill:#010101;}
	.st1{fill:#010101;}
</style>
<path class="st1" d="M610.09,223.89c0,0-78.76,18.31-72.19,92.63c6.57,74.31-33.96,106.32-33.96,106.32s17.96-74.49-7.64-117.35
	c-25.6-42.85,38.05-62.94,32.9-149.34c-5.15-86.41-67.38-130.5-67.38-130.5s42.14,84.63-2.85,128.36
	c-44.98,43.74-142.54,39.06-178.69,138.32c-29.43,80.81,11.37,111.66,11.37,111.66s-107.92-46.41-50.13-146.86
	c0,0-187.85,203.12,25.5,317.1c3,1.6,5.99,3.15,8.95,4.66c-23.49-44.68,1.63-81.56,1.63-81.56c5.69,55.83,79.11,56.81,79.11,56.81
	s-22.11-16.86-42.13-58.59c-23.38-48.71,8.09-81.78,51.03-95.12c42.94-13.33,53.43-50.4,53.43-50.4
	c25.96,39.82,9.96,97.7-6.58,134.05c-16.53,36.36,21.42,65.34,55.83,20.36c34.41-44.98,70.67-40.72,70.67-40.72
	s-19.47,22.23-29.78,57.78c-7.46,25.71,16.4,43.9,21.15,64.83c50.15-35.13,80.76-94.11,92.2-155.68
	C647.6,295.72,553.91,284.7,610.09,223.89z"/>
</svg>
