<?xml version="1.0" encoding="utf-8"?>
<!-- Generator: Adobe Illustrator 25.1.0, SVG Export Plug-In . SVG Version: 6.00 Build 0)  -->
<svg version="1.1" id="Layer_1" xmlns="http://www.w3.org/2000/svg" xmlns:xlink="http://www.w3.org/1999/xlink" x="0px" y="0px"
	 viewBox="0 0 792 612" style="enable-background:new 0 0 792 612;" xml:space="preserve">
<style type="text/css">
	.st0{fill-rule:evenodd;clip-rule:evenodd;fill:#010101;}
	.st1{fill:#010101;}
</style>
<g>
	<path class="st1" d="M510.85,368.25c-13.68-50.07-32.04-40.74-33.28-65c-1.24-24.26-8.71-33.59-31.72-44.48
		c-23.02-10.89-15.86-27.37-15.86-27.37c-14,13.06-16.09,39.66-1.24,46.03c14.84,6.37,12.44,8.4,7.15,28.3
		c-5.29,19.91,14.93,28.61,24.88,40.43c9.95,11.82-5.6,46.03-5.6,46.03c7.15-45.41-24.26-64.38-24.26-64.38s16.48,23.95-2.65,31.1
		c-19.13,7.15-34.98-68.42-20.37-71.54c14.62-3.11,19.91,21.77,19.91,21.77c2.49-19.59-5.29-23.95-19.28-46.34
		c-14-22.39-2.18-26.75,8.4-52.87c10.57-26.13-15.24-46.96-31.1-71.54c-15.86-24.57,7.46-42.46,7.46-42.46
		c-38.26,25.19-33.59,73.02-35.69,98.21c-2.1,25.19-28.23,36.86-30.33,68.81c-2.1,31.96,34.06,53.88,22.39,68.58
		c-11.66,14.7-14,24.96-5.13,40.12c8.86,15.16-0.23,32.42-0.23,32.42c-1.63-38.96-16.1-31.72-14.93-36.62
		c1.17-4.9,4.2-10.5,0.47-16.1c-3.73-5.6-4.67-7.23,2.33-18.19c7-10.96,0.16-23.4-11.04-40.82c-11.2-17.42-5.6-34.83-5.6-34.83
		c-8.09,19.59-8.71,41.37-6.22,52.87c2.49,11.51-12.13,16.48-9.64,26.13c2.49,9.64,7.78,16.48-4.04,32.66
		c-11.82,16.17-53.5,55.67-18.66,97.04c34.83,41.37,65,36.39,65,36.39c52.56,29.86,101.08,0.62,101.08,0.62s22.7,7.46,48.21-6.53
		c25.5-14,7.78-54.12,7.78-54.12S524.53,418.33,510.85,368.25z"/>
	<path class="st1" d="M424.7,201.55c0,0,30.5-12.75-17.63-43.54C407.07,158,432.16,179.77,424.7,201.55z"/>
	<path class="st1" d="M516.45,369.81c0,0,15.86,45.1-7.78,69.36C508.67,439.17,547.86,415.84,516.45,369.81z"/>
</g>
</svg>
