<?xml version="1.0" encoding="utf-8"?>
<!-- Generator: Adobe Illustrator 25.1.0, SVG Export Plug-In . SVG Version: 6.00 Build 0)  -->
<svg version="1.1" id="Layer_1" xmlns="http://www.w3.org/2000/svg" xmlns:xlink="http://www.w3.org/1999/xlink" x="0px" y="0px"
	 viewBox="0 0 792 612" style="enable-background:new 0 0 792 612;" xml:space="preserve">
<style type="text/css">
	.st0{fill-rule:evenodd;clip-rule:evenodd;fill:#010101;}
	.st1{fill:#010101;}
</style>
<g>
	<path class="st1" d="M158.49,367.32c0.06,0.04,0.11,0.09,0.18,0.13C158.67,367.45,158.6,367.4,158.49,367.32z"/>
	<path class="st1" d="M673.02,401.73c12.04-49.79-12.51-82.44-12.51-82.44c7.64,18.3,4.17,39.37-20.15,66.47
		c-24.32,27.1-35.2-9.03-17.37-24.55c17.83-15.52,22.23,4.4,22.23,4.4c14.36-43.54-39.6-83.6-57.66-95.41
		c-18.06-11.81-8.8-14.82-12.51-31.5c-3.7-16.67-21.07-24.55-21.07-24.55c12.51,19.68,9.96,20.84,0.69,38.21
		c-9.26,17.37-3.01,33.81,10.88,37.75c13.9,3.94,18.53,16.21,18.53,16.21c-14.82-10.88-33.12,0.69-46.55-8.8
		c-13.43-9.49-9.73-38.67-9.73-38.67c-28.02,14.36-31.5-34.27-14.13-37.52c17.37-3.24,24.08,20.38,24.08,20.38
		c17.83-70.17-68.32-99.58-68.32-99.58c41.69,38.21,4.86,60.44,4.86,60.44c-6.95-62.06-57.2-66.7-78.56-67.85
		c-21.36-1.16-20.32-20.15-20.32-20.15s-16.44,25.25,4.63,36.59c21.07,11.35,20.38,53.5,1.16,53.03
		c-19.22-0.46-24.08-30.57-24.08-30.57s-8.8,16.67-18.53,10.65c-9.73-6.02-14.82-29.41-4.05-35.2
		c10.77-5.79,25.12,12.97,25.12,12.97c3.01-53.26-43.31-37.98-49.33-47.48c-6.02-9.5,15.52-16.44,15.52-16.44
		c-54.89,4.63-42.15,51.41-44.46,67.62c-2.32,16.21-12.97,20.38-39.6,25.94c-26.63,5.56-21.07,29.41-15.52,38.44
		c5.56,9.03,24.08,33.35,7.18,44c-16.91,10.65-38.44-25.71-35.43-35.66c3.01-9.96,23.16,10.65,23.16,10.65
		c-13.89-15.52-11.35-31.03-11.35-31.03c-18.99,17.37-21.07-0.46-7.87-29.64c13.2-29.18,41.22-38.91,41.22-38.91
		c-15.75-1.85-44.23,8.8-71.79,37.05c-27.56,28.25-33.12,59.52-8.8,75.5c24.32,15.98-13.2,22.46-4.63,63.69
		c8.57,41.22,54.42,41.92,47.94,51.41c-6.48,9.49-36.82-4.4-36.82-4.4s33.35,26.17,23.16,32.88c-10.19,6.72-39.14-10.42-43.77-30.11
		c-4.33-18.42,8.36-9.47,10.01-8.24c-24.75-16.89-12.79-38.58-14.18-51.97c-1.39-13.43-13.89-25.24-13.89-25.24
		s4.17,16.67-1.39,38.91c-5.56,22.23-43.07,68.55,22.7,123.67c65.77,55.12,168.59,63.69,200.55,60.68
		c31.96-3.01,46.55-14.36,56.97-10.88c10.42,3.47,29.64,7.87,67.39,4.86c37.75-3.01,42.84-31.03,49.79-28.95
		c6.95,2.08,19.22,7.87,62.53,3.24c43.31-4.63,52.8-31.73,52.8-31.73s-41.69,7.41-48.25-9.73c-6.56-17.14,13.28-25.01,29.49-20.38
		c16.21,4.63,7.64,15.28,7.64,15.28S660.97,451.52,673.02,401.73z"/>
	<path class="st1" d="M155.58,263.24c-31.5-17.29-4.94-59.05-4.94-59.05C107.1,261.54,155.58,263.24,155.58,263.24z"/>
	<path class="st1" d="M542.79,206.43c0,0,19.45-22.23-22.85-40.14C519.94,166.28,544.33,183.27,542.79,206.43z"/>
	<path class="st1" d="M676.39,408.84c-8.43,37.22-33.13,34.11-33.13,34.11C691.56,451.29,676.39,408.84,676.39,408.84z"/>
</g>
</svg>
