<?xml version="1.0" encoding="utf-8"?>
<!-- Generator: Adobe Illustrator 25.1.0, SVG Export Plug-In . SVG Version: 6.00 Build 0)  -->
<svg version="1.1" id="Layer_1" xmlns="http://www.w3.org/2000/svg" xmlns:xlink="http://www.w3.org/1999/xlink" x="0px" y="0px"
	 viewBox="0 0 792 612" style="enable-background:new 0 0 792 612;" xml:space="preserve">
<style type="text/css">
	.st0{fill-rule:evenodd;clip-rule:evenodd;fill:#010101;}
	.st1{fill:#010101;}
</style>
<path class="st1" d="M570.27,270.86c0,0,50.75,6.91,76.17-4.8c25.42-11.71,22.6-73.47,108.33-65.23c0,0-221.51-66.13-295.94,43.36
	c0,0,27.81-22.74,50.71-6.87c22.91,15.87-26.32,61.58-56.34,27.46c0,0-13.77,20.3-57.1,16.27c-43.33-4.02-94.4-5.75-154.98,42.19
	c0,0,23.6-46.84,72.74-53.98c49.14-7.13,102.85-0.62,130.36-25.67c0,0-15.8,11.25-87.47-16.18
	c-71.67-27.43-152.64-22.21-180.79,51.69c0,0-9.95-34.31,29.73-63.55c0,0-25.75,15.79-53.06,22.34
	c-27.32,6.55-63.77,24.66-64.95,56.12c0,0,17.21-18.29,28.39-10.63c11.17,7.66-10.75,35.99-28.22,28.02c0,0,3.06,10.33-15.74,17.17
	c-18.8,6.84-43.27,40.37-32.01,57.28c11.26,16.91,44.61,22.51,67.06,10.08c0,0,9.46,21.74,93.88,28.32
	c84.42,6.59,67.99-9.16,108.81,3.76c40.82,12.93,91.55-21.23,114.56-13.68c23.01,7.55,45.72,22.13,90.87-14.93
	c0,0-21.44,1.69-7.6-20.65c13.84-22.33,53.04-24.93,32.95,2.27c0,0,7.67-10.43,23.23-8.36c15.56,2.07,55.55,5.76,55.17-33.46
	c-0.38-39.21,21.18-29.11,48.87-35.09c27.69-5.98,20.71-38.84,8.69-57.59c0,0,3.22,26.98-26.67,35.4
	c-29.89,8.43-71.35,5.87-74.48,26.25c-3.13,20.38-1.64,22.21-16.79,23.47c-15.16,1.26-19.14,10.17-19.14,10.17
	s5.12-11.26,19.81-17.58c14.69-6.32-6.96-31.75,17.37-40.49c0,0-13.69,0.13-25.42,10.97c-11.74,10.84-34.04-0.04-34.04-0.04
	s8.15,1.4,18.34-16.09c10.19-17.49,50.36-33.78,58.97-23.14C603.15,266.1,570.27,270.86,570.27,270.86z"/>
</svg>
