<?xml version="1.0" encoding="utf-8"?>
<!-- Generator: Adobe Illustrator 24.3.0, SVG Export Plug-In . SVG Version: 6.00 Build 0)  -->
<svg version="1.1" id="Layer_1" xmlns="http://www.w3.org/2000/svg" xmlns:xlink="http://www.w3.org/1999/xlink" x="0px" y="0px"
	 viewBox="0 0 64 64" style="enable-background:new 0 0 64 64;" xml:space="preserve">
<style type="text/css">
	.st0{fill:#814d2e;stroke:#111;stroke-width:;stroke-linejoin:round;stroke-miterlimit:10;}
</style>
<g>
	<path class="st0" d="M36.1,28.2H9.7c-0.1,0-0.1,0-0.2,0c-0.1,0-0.1,0-0.1,0C4.2,28.4,0,32.7,0,37.9c0,2.7,1.1,5.1,2.8,6.9
		c1.7,1.7,4,2.7,6.5,2.8c0,0,0,0,0,0c0.1,0,0.1,0,0.2,0c0.1,0,0.1,0,0.2,0h44.6c5.4,0,9.7-4.4,9.7-9.7c0-2.7-1.1-5.1-2.8-6.9
		c-1.8-1.8-4.2-2.9-6.9-2.9H43.5"/>
	<path class="st0" d="M9.6,47.6c5.4,0,9.3-4.4,9.3-9.7v0c0-5.4-3.8-9.7-9.2-9.7"/>
	<g>
		<path class="st0" d="M12.7,34.7c0.8,0.8,1.3,2,1.3,3.2c0,2.5-2,4.5-4.5,4.5c-0.2,0-0.4,0-0.7,0"/>
		<path class="st0" d="M6.6,41.4c-1-0.8-1.6-2.1-1.6-3.5c0-2.5,2-4.5,4.5-4.5"/>
	</g>
</g>
<g>
	<line class="st0" x1="28.9" y1="33.6" x2="18" y2="33.6"/>
	<line class="st0" x1="64" y1="38.1" x2="45.6" y2="38.1"/>
	<line class="st0" x1="17.9" y1="42.3" x2="24.5" y2="42.3"/>
</g>
</svg>
