<?xml version="1.0" encoding="utf-8"?>
<!-- Generator: Adobe Illustrator 18.0.0, SVG Export Plug-In . SVG Version: 6.00 Build 0)  -->
<!DOCTYPE svg PUBLIC "-//W3C//DTD SVG 1.1//EN" "http://www.w3.org/Graphics/SVG/1.1/DTD/svg11.dtd">
<svg version="1.1" id="Layer_1" xmlns="http://www.w3.org/2000/svg" xmlns:xlink="http://www.w3.org/1999/xlink" x="0px" y="0px"
	 viewBox="0 0 719.9 432" enable-background="new 0 0 719.9 432" xml:space="preserve">
<g>
	<path fill="#040403" d="M630.6,95.1c-0.1-1.1-0.2-2.2-0.4-3.3c-13.7,0.7-27.2,1.3-40.6-1.6c13.5,1,26.8-0.5,40.2-2.9
		c-0.5-2.7-0.9-5-1.3-7.3c-12.9,0.6-25.5,1.1-38.1,1.7c0-0.1,0-0.2,0-0.3c12.3-1.8,24.6-3.7,37.1-5.5c-1.9-7.5-4.5-14.1-7.5-20.5
		c-0.9-2-2.1-2.5-4.2-2.2c-7.9,1.3-15.8,2.5-23.7,3.7c-2.7,0.4-5.5,0.8-8.5,1.2c0.3-1.2,0.6-2,0.8-2.8c0.7-4.5,1.4-9,2-13.5
		c0.2-1.9-0.9-3.6-2.7-3.9c-3.3-0.6-6.8-0.7-10.2-1c-0.3,0-0.8,0.4-1.1,0.7c-6.1,7.2-12.3,14.3-18.5,21.5c3.8,4.5,8.8,7,14.5,9.6
		c-5.8-0.6-12.2-3.3-16.7-6.6c-0.7-0.5-1.7-1-2.6-1.1c-16.2-0.6-32.4-0.9-48.5-1.8c-15.8-0.9-31.5-2.5-47.3-3.8
		c-5.3-0.4-10.5-1-16.4-1.5c6.6,4.2,9.7,10.3,11.9,16.9c3.4,10.1,4.3,20.5,3.5,31c-0.1,2-0.4,4-0.6,6.2c6.3,1,12.4,2.1,18.5,3
		c6.1,0.9,12.2,1.7,18.3,2.4c6.1,0.6,12.2,1,18.3,1.5c-18.7,1.2-37.3-0.9-55.9-2.5c-0.7,2.8-1.4,5.3-2.1,8
		c12.3,1.8,24.5,3.6,36.6,5.4c-1.5,0.1-3,0.2-4.5,0.1c-10.6-0.5-21.1-0.9-31.7-1.5c-1.5-0.1-2.3,0.2-2.9,1.6
		c-2.5,5.1-5.6,9.7-11.2,12.1c0.7,0,1.4,0,2.2,0c59.5,0,119,0,178.5,0c8,0,8,0,10.7-7.6c0.2-0.4,0.3-0.8,0.4-1.3
		C630.7,118,631.2,106.6,630.6,95.1z"/>
	<path fill="#040403" d="M437.7,133.3c2.5-3,4.7-6.5,6.1-10.1c6.2-15.8,6.4-32.1,2.3-48.5c-1.6-6.4-4.1-12.5-8.8-17.4
		c-5.6-5.7-12.3-5.8-17.6,0.2c-2.6,3-4.7,6.6-6.3,10.2c-3.9,8.8-5,18.3-5.5,27.9c0.8,5.9,1.2,11.9,2.4,17.8c1.4,7.4,4,14.5,9.2,20.1
		C425.1,139.6,432.2,139.7,437.7,133.3z"/>
</g>
<g>
	<path fill="#040403" d="M270.3,107.7c-1.2-1.9-4.9-4.9-8.6-3.8c-3.7,1.1-3.1,0.2-3.1,0.2s0-3.4,0-4.5c-3.3-8.1-5.3,0-5.3,0
		s0.2,1,0.2,5.6c0.1,4.5-1.8,5.4-1.8,5.4l-11,11.8c0,0,0-53.2,0-56.9c-2.4-13.9-5.7-14.1-35.9-18.1s-73.6-0.1-94.4,1.8
		c-20.8,1.9-21.2,14.5-21.2,14.5s-0.1,18.9-0.1,19c0,0.1-0.2,9.5,0.1,14.1c0.4,4.6-1.6,2.1-1.6,2.1S77.2,88.4,76.2,87.1
		c-0.9-2.2-3.8-2.8-3.8-2.8S60.2,82.3,54,84.2S52.4,89,52.4,89l15.6,15.1c0,0-3,0-4.8,0c-6.3,3.7,1,6.9,1,6.9h10.5l14.7,15v18.3
		c0,0,0.3,41.4,0,58.8c-0.3,17.4,2,18.2,13,21.6c25.7,11.7,107.7,1.5,123.2,0.2s14.5-18.2,14.5-18.2V169c0,0,0.3-9.5,0.2-13.1
		c-0.1-3.6,0.3-1.6,6.8-1.6c6.5,0,9-11.8,3.7-12.8s-0.6-3.5-0.6-3.5s13.5-11.6,18.3-17.4C273.2,114.8,271.5,109.6,270.3,107.7z
		 M123.3,116.2c0,1.1-0.9,1.9-1.9,1.9s-1.9-0.9-1.9-1.9V87c0-1.1,0.9-1.9,1.9-1.9s1.9,0.9,1.9,1.9V116.2z M133,110.6
		c0,1.1-0.9,1.9-1.9,1.9c-1.1,0-1.9-0.9-1.9-1.9V81.4c0-1.1,0.9-1.9,1.9-1.9c1.1,0,1.9,0.9,1.9,1.9V110.6z M143.4,137.1
		c0,1.1-0.9,1.9-1.9,1.9s-1.9-0.9-1.9-1.9v-29.2c0-1.1,0.9-1.9,1.9-1.9s1.9,0.9,1.9,1.9V137.1z M203.5,163.2c0,1.1-0.9,1.9-1.9,1.9
		c-1.1,0-1.9-0.9-1.9-1.9v-29.2c0-1.1,0.9-1.9,1.9-1.9c1.1,0,1.9,0.9,1.9,1.9V163.2z M215.6,143.7c0,1.1-0.9,1.9-1.9,1.9
		c-1.1,0-1.9-0.9-1.9-1.9v-29.2c0-1.1,0.9-1.9,1.9-1.9c1.1,0,1.9,0.9,1.9,1.9V143.7z M226.6,165.8c0,1.1-0.9,1.9-1.9,1.9
		c-1.1,0-1.9-0.9-1.9-1.9v-29.2c0-1.1,0.9-1.9,1.9-1.9c1.1,0,1.9,0.9,1.9,1.9V165.8z M165.5,65.8c-39.4,0-71.3-4-71.3-9
		c0-5,31.9-9,71.3-9s71.3,4,71.3,9C236.8,61.8,204.9,65.8,165.5,65.8z"/>
</g>
<ellipse transform="matrix(0.5394 -0.842 0.842 0.5394 -430.6831 -826.566)" fill="none" cx="-970.9" cy="-19.6" rx="22.8" ry="9.3"/>
<path fill="none" d="M-869.1-83.3c-32.4,0-58.7,8.5-58.7,19c0,4.3,4.4,8.3,11.9,11.5c0.7-1.2,2-2,3.4-2c2.2,0,4,1.8,4,4v0.6
	c5.3,1.6,11.5,2.8,18.3,3.6c0.6-1.4,2-2.4,3.7-2.4h0c1.9,0,3.5,1.4,3.9,3.2c4.3,0.3,8.8,0.5,13.4,0.5c3,0,5.9-0.1,8.7-0.2
	c0.3-2,1.9-3.5,3.9-3.5h0c1.8,0,3.4,1.2,3.8,2.9c9.3-0.9,17.7-2.5,24.5-4.6v-0.1c0-2.2,1.8-4,4-4c1.2,0,2.3,0.6,3,1.4
	c6.7-3.1,10.6-6.8,10.6-10.9C-810.4-74.8-836.7-83.3-869.1-83.3z"/>
<path fill="#040403" d="M675.8,190.2c-23.7-5-62.7-16-102.7,5.7c-5,3-7,3.3-7,34.3c0,7.7,0,14,0,14s1.3,7.2-5.4-0.1
	s-10-10.6-10-10.6s-8.5-9-22.1,0.3c-3.4,2.1-13.9,10.8-17.3,28.4c0,4.3,0.8,6.4,13.6,18.3s33.8,34.3,33.8,34.3s7.5,5.9,7.5,13.8
	v55.8c0,0-1.4,14.3,19,18.9c-0.4-0.6-0.7-1.4-0.7-2.3v-38.7c0-2.2,1.8-4,4-4c2.2,0,4,1.8,4,4v38.7c0,1.4-0.7,2.6-1.7,3.3
	c4,0.7,8.6,1.3,13.8,1.9v-25.9c0-2.2,1.8-4,4-4h0c2.2,0,4,1.8,4,4v26.7c8.8,0.8,18.5,1.3,28,1.3v-27.3c0-2.2,1.8-4,4-4h0
	c2.2,0,4,1.8,4,4V408c10.9-0.4,21.2-1.7,29.4-4.4c-0.7-0.7-1.1-1.7-1.1-2.7v-38.7c0-2.2,1.8-4,4-4c2.2,0,4,1.8,4,4v38.6
	c0.9-0.4,1.7-0.9,2.5-1.4c5.5-3.5,10.3-5.8,10.3-22.7c0-16.8,0-68.8,0-68.8v-92.3C697.6,215.5,699.5,195.2,675.8,190.2z M537.8,256
	c-6.8,10.6-15.8,16.9-20.1,14.1c-4.3-2.8-2.4-13.6,4.4-24.2c6.8-10.6,15.8-16.9,20.1-14.1C546.6,234.6,544.6,245.4,537.8,256z
	 M639,327.2c0,2.2-1.8,4-4,4h0c-2.2,0-4-1.8-4-4v-27.7c0-2.2,1.8-4,4-4h0c2.2,0,4,1.8,4,4V327.2z M679.8,217.1c0.6,0.7,1,1.6,1,2.6
	v42c0,2.2-1.8,4-4,4c-2.2,0-4-1.8-4-4v-41.9c-6.8,2.1-15.1,3.8-24.5,4.6c0.1,0.3,0.2,0.7,0.2,1.1v27.7c0,2.2-1.8,4-4,4h0
	c-2.2,0-4-1.8-4-4v-27.7c0-0.2,0-0.4,0.1-0.5c-2.9,0.1-5.8,0.2-8.7,0.2c-4.6,0-9.1-0.2-13.4-0.5c0.1,0.3,0.1,0.5,0.1,0.8v27.7
	c0,2.2-1.8,4-4,4h0c-2.2,0-4-1.8-4-4v-27.7c0-0.6,0.1-1.1,0.3-1.6c-6.8-0.8-13-2.1-18.3-3.6v41.4c0,2.2-1.8,4-4,4c-2.2,0-4-1.8-4-4
	v-42c0-0.7,0.2-1.4,0.6-2c-7.5-3.2-11.9-7.2-11.9-11.5c0-10.5,26.3-19,58.7-19s58.7,8.5,58.7,19C690.5,210.3,686.5,214,679.8,217.1z
	"/>
<g>
	<path fill="none" d="M346.5,269.6c-4.1,0-7.5,3.4-7.5,7.5s3.4,7.5,7.5,7.5s7.5-3.4,7.5-7.5S350.6,269.6,346.5,269.6z"/>
	<path fill="none" d="M346.5,256.3c-11.5,0-20.8,9.3-20.8,20.8c0,11.5,9.3,20.8,20.8,20.8c11.5,0,20.8-9.3,20.8-20.8
		C367.3,265.6,358,256.3,346.5,256.3z M346.5,293.3c-8.9,0-16.2-7.3-16.2-16.2c0-8.9,7.3-16.2,16.2-16.2c8.9,0,16.2,7.3,16.2,16.2
		C362.6,286,355.4,293.3,346.5,293.3z"/>
	<path fill="none" d="M346.5,262c-8.4,0-15.2,6.8-15.2,15.2c0,8.4,6.8,15.2,15.2,15.2s15.2-6.8,15.2-15.2
		C361.6,268.8,354.8,262,346.5,262z M346.5,285.6c-4.7,0-8.5-3.8-8.5-8.5c0-4.7,3.8-8.5,8.5-8.5c4.7,0,8.5,3.8,8.5,8.5
		C355,281.8,351.2,285.6,346.5,285.6z"/>
	<path fill="none" d="M346.5,248.2c-16,0-28.9,13-28.9,29c0,16,13,29,28.9,29c16,0,29-13,29-29C375.4,261.2,362.4,248.2,346.5,248.2
		z M346.5,299c-12,0-21.8-9.8-21.8-21.8c0-12,9.8-21.8,21.8-21.8c12,0,21.8,9.8,21.8,21.8C368.3,289.2,358.5,299,346.5,299z"/>
	<path fill="none" d="M346.5,240.5c-20.2,0-36.6,16.4-36.6,36.6c0,20.2,16.4,36.6,36.6,36.6c20.2,0,36.6-16.4,36.6-36.6
		C383.1,256.9,366.7,240.5,346.5,240.5z M346.5,307.1c-16.5,0-29.9-13.4-29.9-30c0-16.5,13.4-30,29.9-30c16.5,0,30,13.4,30,30
		C376.4,293.6,363,307.1,346.5,307.1z"/>
	<path d="M470.1,201.8c-21.7-26-54.3-10-54.3-10l-73.7,38.3c-25.3,10.7-54.3,40.3-32,70c22.3,29.7,53,16.7,53,16.7l33-17.7l74-40.3
		C470.1,258.8,491.8,227.8,470.1,201.8z M379.6,228.6l58.9-27.6c1.5-0.7,3.3-0.1,4,1.4c0.7,1.5,0,3.3-1.5,4L382.2,234
		c-1.5,0.7-3.3,0.1-4-1.4C377.5,231,378.1,229.3,379.6,228.6z M346.5,313.7c-20.2,0-36.6-16.4-36.6-36.6c0-20.2,16.4-36.6,36.6-36.6
		c20.2,0,36.6,16.4,36.6,36.6C383.1,297.3,366.7,313.7,346.5,313.7z M465.4,245.2l-58.9,27.6c-1.5,0.7-3.3,0.1-4-1.4
		c-0.7-1.5,0-3.3,1.5-4l58.9-27.6c1.5-0.7,3.3-0.1,4,1.4C467.6,242.7,466.9,244.5,465.4,245.2z M469.8,218.5l-86.2,40.4
		c-1.5,0.7-3.3,0.1-4-1.4c-0.7-1.5-0.1-3.3,1.4-4l86.2-40.4c1.5-0.7,3.3-0.1,4,1.4C472,216,471.3,217.8,469.8,218.5z"/>
	<path d="M346.5,268.6c-4.7,0-8.5,3.8-8.5,8.5c0,4.7,3.8,8.5,8.5,8.5c4.7,0,8.5-3.8,8.5-8.5C355,272.4,351.2,268.6,346.5,268.6z
		 M346.5,284.6c-4.1,0-7.5-3.4-7.5-7.5c0-4.1,3.4-7.5,7.5-7.5c4.1,0,7.5,3.4,7.5,7.5C354,281.3,350.6,284.6,346.5,284.6z"/>
	<path d="M346.5,261c-8.9,0-16.2,7.3-16.2,16.2c0,8.9,7.3,16.2,16.2,16.2c8.9,0,16.2-7.3,16.2-16.2C362.6,268.2,355.4,261,346.5,261
		z M346.5,292.3c-8.4,0-15.2-6.8-15.2-15.2c0-8.4,6.8-15.2,15.2-15.2s15.2,6.8,15.2,15.2C361.6,285.5,354.8,292.3,346.5,292.3z"/>
	<path d="M346.5,255.3c-12,0-21.8,9.8-21.8,21.8c0,12,9.8,21.8,21.8,21.8c12,0,21.8-9.8,21.8-21.8
		C368.3,265.1,358.5,255.3,346.5,255.3z M346.5,298c-11.5,0-20.8-9.3-20.8-20.8c0-11.5,9.3-20.8,20.8-20.8
		c11.5,0,20.8,9.3,20.8,20.8C367.3,288.6,358,298,346.5,298z"/>
	<path d="M346.5,247.2c-16.5,0-29.9,13.4-29.9,30c0,16.5,13.4,30,29.9,30c16.5,0,30-13.4,30-30C376.4,260.6,363,247.2,346.5,247.2z
		 M346.5,306.1c-16,0-28.9-13-28.9-29c0-16,13-29,28.9-29c16,0,29,13,29,29C375.4,293.1,362.4,306.1,346.5,306.1z"/>
</g>
<g>
	<path fill="none" d="M160.1,316c8.3,0,15-6.7,15-15c0-8.3-6.7-15-15-15c-8.3,0-15,6.7-15,15C145.1,309.3,151.8,316,160.1,316z
		 M160.1,286.7c7.9,0,14.2,6.4,14.2,14.2s-6.4,14.2-14.2,14.2c-7.9,0-14.2-6.4-14.2-14.2S152.2,286.7,160.1,286.7z"/>
	<path fill="none" d="M161.2,356c-8.3,0-15,6.7-15,15c0,8.3,6.7,15,15,15c8.3,0,15-6.7,15-15C176.2,362.7,169.5,356,161.2,356z
		 M161.2,385.3c-7.9,0-14.4-6.4-14.4-14.4s6.4-14.4,14.4-14.4c7.9,0,14.4,6.4,14.4,14.4S169.1,385.3,161.2,385.3z"/>
	<path fill="none" d="M160.1,310.7c5.4,0,9.7-4.4,9.7-9.7s-4.4-9.7-9.7-9.7c-5.4,0-9.7,4.4-9.7,9.7S154.7,310.7,160.1,310.7z
		 M160.1,294.5c3.6,0,6.5,2.9,6.5,6.5c0,3.6-2.9,6.5-6.5,6.5s-6.5-2.9-6.5-6.5C153.6,297.4,156.5,294.5,160.1,294.5z"/>
	<path fill="none" d="M161.2,361.2c-5.4,0-9.8,4.4-9.8,9.8s4.4,9.8,9.8,9.8c5.4,0,9.8-4.4,9.8-9.8S166.6,361.2,161.2,361.2z
		 M161.2,377.5c-3.6,0-6.6-2.9-6.6-6.6c0-3.6,2.9-6.6,6.6-6.6s6.6,2.9,6.6,6.6C167.7,374.6,164.8,377.5,161.2,377.5z"/>
	<path fill="none" d="M231.2,325.9c-5.5,0-9.9,4.4-9.9,9.9c0,5.5,4.4,9.9,9.9,9.9c5.5,0,9.9-4.4,9.9-9.9
		C241.1,330.3,236.6,325.9,231.2,325.9z M231.2,342.7c-3.8,0-6.9-3.1-6.9-6.9s3.1-6.9,6.9-6.9s6.9,3.1,6.9,6.9
		S235,342.7,231.2,342.7z"/>
	<path fill="none" d="M231.2,320.8c-8.3,0-15,6.7-15,15c0,8.3,6.7,15,15,15c8.3,0,15-6.7,15-15C246.2,327.5,239.5,320.8,231.2,320.8
		z M231.2,350.3c-8,0-14.5-6.5-14.5-14.5c0-8,6.5-14.5,14.5-14.5c8,0,14.5,6.5,14.5,14.5C245.7,343.8,239.2,350.3,231.2,350.3z"/>
	<path d="M231.2,321.3c-8,0-14.5,6.5-14.5,14.5c0,8,6.5,14.5,14.5,14.5c8,0,14.5-6.5,14.5-14.5C245.7,327.8,239.2,321.3,231.2,321.3
		z M231.2,345.7c-5.5,0-9.9-4.4-9.9-9.9c0-5.5,4.4-9.9,9.9-9.9c5.5,0,9.9,4.4,9.9,9.9C241.1,341.3,236.6,345.7,231.2,345.7z"/>
	<circle cx="231.2" cy="335.8" r="6.9"/>
	<path d="M162.6,353.8H47.9c-9.4,0-17.2,7.7-17.2,17.2v0c0,9.4,7.7,17.2,17.2,17.2h114.7c9.4,0,17.2-7.7,17.2-17.2v0
		C179.8,361.5,172,353.8,162.6,353.8z M161.2,386c-8.3,0-15-6.7-15-15c0-8.3,6.7-15,15-15c8.3,0,15,6.7,15,15
		C176.2,379.3,169.5,386,161.2,386z"/>
	<path d="M231.5,318.6H116.8c-9.4,0-17.2,7.7-17.2,17.2v0c0,9.4,7.7,17.2,17.2,17.2h114.7c9.4,0,17.2-7.7,17.2-17.2v0
		C248.7,326.4,240.9,318.6,231.5,318.6z M231.2,350.8c-8.3,0-15-6.7-15-15c0-8.3,6.7-15,15-15c8.3,0,15,6.7,15,15
		C246.2,344.1,239.5,350.8,231.2,350.8z"/>
	<path d="M46.3,318.1h114.7c9.4,0,17.2-7.7,17.2-17.2v0c0-9.4-7.7-17.2-17.2-17.2H46.3c-9.4,0-17.2,7.7-17.2,17.2v0
		C29.1,310.4,36.8,318.1,46.3,318.1z M160.1,286c8.3,0,15,6.7,15,15c0,8.3-6.7,15-15,15c-8.3,0-15-6.7-15-15
		C145.1,292.7,151.8,286,160.1,286z"/>
	<path d="M160.1,315.2c7.9,0,14.2-6.4,14.2-14.2s-6.4-14.2-14.2-14.2c-7.9,0-14.2,6.4-14.2,14.2S152.2,315.2,160.1,315.2z
		 M160.1,291.3c5.4,0,9.7,4.4,9.7,9.7s-4.4,9.7-9.7,9.7c-5.4,0-9.7-4.4-9.7-9.7S154.7,291.3,160.1,291.3z"/>
	<circle cx="160.1" cy="301" r="6.5"/>
	<path d="M161.2,356.6c-7.9,0-14.4,6.4-14.4,14.4s6.4,14.4,14.4,14.4c7.9,0,14.4-6.4,14.4-14.4S169.1,356.6,161.2,356.6z
		 M161.2,380.8c-5.4,0-9.8-4.4-9.8-9.8s4.4-9.8,9.8-9.8c5.4,0,9.8,4.4,9.8,9.8S166.6,380.8,161.2,380.8z"/>
	<circle cx="161.2" cy="371" r="6.6"/>
</g>
</svg>
